{"glyphs":{"0":{"ha":954,"x_min":93,"x_max":863,"o":"m 190 111 q 142 177 190 111 q 93 486 93 243 q 190 861 93 729 q 478 993 288 993 q 766 861 669 993 q 863 486 863 729 q 766 111 863 243 q 478 -21 669 -21 q 190 111 288 -21 m 345 725 q 325 685 345 725 q 304 486 304 644 q 345 248 304 328 q 478 167 385 167 q 611 248 571 167 q 652 486 652 328 q 611 725 652 644 q 478 806 571 806 q 345 725 385 806 z "},"1":{"ha":663,"x_min":86,"x_max":522,"o":"m 86 640 l 86 844 l 332 972 l 522 972 l 522 0 l 318 0 l 318 757 l 86 640 z "},"2":{"ha":866,"x_min":93,"x_max":781,"o":"m 93 0 q 137 270 93 171 q 285 439 180 368 l 464 557 q 534 620 510 589 q 558 686 558 651 q 513 770 558 736 q 387 804 467 804 q 247 780 316 804 q 125 717 178 755 l 125 925 q 248 972 173 951 q 414 993 322 993 q 676 909 577 993 q 775 708 775 825 q 731 547 775 616 q 599 422 687 478 l 392 290 q 343 244 362 271 q 325 191 325 218 l 781 191 l 781 0 l 93 0 z "},"3":{"ha":854,"x_min":109,"x_max":768,"o":"m 109 50 l 109 254 q 255 194 174 217 q 407 171 336 171 q 511 205 473 171 q 550 290 550 239 q 511 376 550 345 q 410 408 472 408 q 319 389 370 408 l 229 600 l 479 787 l 109 787 l 109 972 l 741 972 l 741 765 l 454 555 q 511 561 481 561 q 695 481 622 561 q 768 279 768 402 q 671 65 768 151 q 407 -21 574 -21 q 109 50 256 -21 z "},"4":{"ha":924,"x_min":72,"x_max":875,"o":"m 72 215 l 72 446 l 472 972 l 721 972 l 721 395 l 875 395 l 875 215 l 721 215 l 721 0 l 515 0 l 515 215 l 72 215 m 256 395 l 515 395 l 515 749 l 256 395 z "},"5":{"ha":837,"x_min":107,"x_max":766,"o":"m 107 49 l 107 253 q 397 170 252 170 q 506 205 463 170 q 549 302 549 241 q 506 396 549 359 q 390 433 464 433 q 260 393 315 433 l 121 504 l 139 971 l 721 971 l 721 786 l 321 786 l 311 590 q 457 618 382 618 q 679 531 591 618 q 766 302 766 444 q 742 176 766 235 q 672 73 717 117 q 559 3 627 28 q 410 -22 492 -22 q 107 49 266 -22 z "},"6":{"ha":922,"x_min":100,"x_max":822,"o":"m 100 452 q 118 663 100 571 q 171 817 137 755 q 257 919 205 879 q 372 976 309 958 q 514 993 435 993 q 647 978 576 993 q 757 943 719 962 l 757 737 q 636 786 703 768 q 514 804 569 804 q 358 742 408 804 q 307 550 307 680 q 514 621 391 621 q 735 533 649 621 q 822 300 822 445 q 776 131 822 205 q 651 18 730 58 q 475 -21 572 -21 q 201 105 302 -21 q 100 452 100 231 m 318 383 q 357 217 318 276 q 476 158 397 158 q 582 199 540 158 q 624 304 624 241 q 583 408 624 366 q 476 449 543 449 q 318 383 390 449 z "},"7":{"ha":851,"x_min":65,"x_max":786,"o":"m 65 637 l 65 972 l 786 972 l 786 761 q 708 671 745 719 q 627 550 670 623 q 554 398 585 477 q 503 214 523 319 q 482 0 482 110 l 269 0 q 294 224 269 112 q 355 424 319 337 q 439 589 392 511 q 526 717 486 667 q 600 799 566 767 l 239 799 l 239 637 l 65 637 z "},"8":{"ha":886,"x_min":86,"x_max":800,"o":"m 86 273 q 124 411 86 351 q 232 513 162 472 q 119 724 119 585 q 206 918 119 844 q 441 993 292 993 q 680 917 593 993 q 766 720 766 840 q 731 597 766 654 q 637 503 696 541 q 800 265 800 416 q 705 60 800 140 q 444 -21 610 -21 q 181 61 275 -21 q 86 273 86 142 m 286 292 q 330 193 286 229 q 444 158 373 158 q 559 192 517 158 q 600 275 600 225 q 577 338 600 311 q 497 390 553 366 l 396 435 q 286 292 286 387 m 304 714 q 396 604 304 642 l 472 572 q 551 629 520 594 q 582 707 582 663 q 544 791 582 759 q 441 823 507 823 q 341 793 378 823 q 304 714 304 763 z "},"9":{"ha":922,"x_min":100,"x_max":822,"o":"m 100 672 q 198 904 100 815 q 446 993 296 993 q 720 867 618 993 q 822 521 822 742 q 794 266 822 372 q 711 98 766 160 q 582 7 656 35 q 408 -21 508 -21 q 275 -5 347 -21 q 165 29 203 10 l 165 235 q 286 186 219 203 q 408 168 353 168 q 564 231 513 168 q 614 422 614 293 q 408 351 532 351 q 186 439 273 351 q 100 672 100 527 m 297 668 q 338 565 297 606 q 446 524 379 524 q 604 589 530 524 q 565 755 604 696 q 446 814 525 814 q 339 773 381 814 q 297 668 297 732 z "}," ":{"ha":351,"x_min":0,"x_max":0,"o":""},"!":{"ha":443,"x_min":97,"x_max":346,"o":"m 133 29 q 115 47 133 29 q 97 115 97 64 q 133 202 97 166 q 221 237 168 237 q 310 202 275 237 q 346 115 346 167 q 310 28 346 64 q 221 -7 275 -7 q 133 29 168 -7 m 117 972 l 325 972 l 296 334 l 147 334 l 117 972 z "},"\"":{"ha":501,"x_min":45,"x_max":458,"o":"m 45 972 l 214 972 l 200 614 l 58 614 l 45 972 m 288 972 l 458 972 l 444 614 l 301 614 l 288 972 z "},"#":{"ha":887,"x_min":37,"x_max":850,"o":"m 37 258 l 37 408 l 186 408 l 224 579 l 107 579 l 107 728 l 254 728 l 300 942 l 460 942 l 414 728 l 555 728 l 603 942 l 761 942 l 715 728 l 850 728 l 850 579 l 685 579 l 647 408 l 781 408 l 781 258 l 615 258 l 568 41 l 410 41 l 456 258 l 313 258 l 267 41 l 107 41 l 154 258 l 37 258 m 346 408 l 488 408 l 525 579 l 382 579 l 346 408 z "},"$":{"ha":836,"x_min":65,"x_max":781,"o":"m 65 689 q 163 908 65 823 q 436 993 261 993 l 449 1083 l 575 1083 l 561 982 q 721 933 643 967 l 721 728 q 533 790 625 772 l 504 581 l 521 576 q 781 283 781 519 q 686 65 781 151 q 428 -21 591 -21 l 421 -21 l 404 -139 l 277 -139 l 294 -9 q 72 64 169 13 l 72 271 q 184 219 117 243 q 322 182 252 195 l 351 396 l 326 401 q 65 689 65 458 m 282 701 q 304 643 282 667 q 367 610 326 618 l 382 607 l 408 802 q 315 770 349 797 q 282 701 282 743 m 447 174 q 533 204 505 178 q 561 271 561 231 q 539 331 561 305 q 475 370 517 357 l 447 174 z "},"%":{"ha":1184,"x_min":77,"x_max":1108,"o":"m 77 768 q 143 928 77 864 q 306 993 210 993 q 470 929 404 993 q 536 768 536 865 q 471 606 536 670 q 306 542 405 542 q 143 606 209 542 q 77 768 77 670 m 208 0 l 796 972 l 975 972 l 390 0 l 208 0 m 220 768 q 244 705 220 729 q 306 681 268 681 q 369 705 344 681 q 393 768 393 729 q 369 830 393 806 q 306 854 344 854 q 244 831 268 854 q 220 768 220 807 m 715 42 q 682 75 715 42 q 648 204 648 107 q 715 366 648 301 q 878 431 781 431 q 1042 366 976 431 q 1108 204 1108 302 q 1042 42 1108 106 q 878 -22 976 -22 q 715 42 781 -22 m 815 267 q 803 255 815 267 q 791 204 791 243 q 815 142 791 165 q 878 118 840 118 q 940 142 916 118 q 965 204 965 166 q 940 267 965 243 q 878 292 916 292 q 815 267 840 292 z "},"&":{"ha":980,"x_min":56,"x_max":966,"o":"m 56 279 q 204 530 56 444 q 119 736 119 631 q 208 920 119 848 q 447 993 296 993 q 718 936 594 993 l 718 729 q 465 800 586 800 q 371 776 402 800 q 339 714 339 751 q 341 695 339 705 q 347 678 344 686 q 357 660 350 670 q 368 643 363 649 q 381 626 372 637 q 395 611 391 614 q 409 595 398 607 q 421 582 420 584 l 639 350 l 904 635 l 904 347 l 772 207 l 966 0 l 703 0 l 636 71 q 376 -21 525 -21 q 146 64 237 -21 q 56 279 56 150 m 260 286 q 298 205 260 237 q 390 174 336 174 q 501 215 444 174 l 334 395 q 260 286 260 355 z "},"'":{"ha":258,"x_min":45,"x_max":214,"o":"m 45 972 l 214 972 l 200 614 l 58 614 l 45 972 z "},"(":{"ha":590,"x_min":58,"x_max":498,"o":"m 58 396 q 137 779 58 600 q 349 1088 216 957 l 498 1010 q 250 396 250 748 q 498 -216 250 43 l 349 -296 q 137 14 216 -165 q 58 396 58 193 z "},")":{"ha":590,"x_min":93,"x_max":533,"o":"m 93 -216 q 340 396 340 45 q 93 1010 340 747 l 241 1088 q 454 779 375 958 q 533 396 533 600 q 454 14 533 193 q 241 -296 375 -165 l 93 -216 z "},"*":{"ha":630,"x_min":39,"x_max":591,"o":"m 39 726 l 79 848 l 244 793 l 244 972 l 385 972 l 385 793 l 551 848 l 591 726 l 416 672 l 528 525 l 419 446 l 315 596 l 212 446 l 104 526 l 214 672 l 39 726 z "},"+":{"ha":672,"x_min":0,"x_max":672,"o":"m 0 326 l 0 472 l 260 472 l 260 743 l 411 743 l 411 472 l 672 472 l 672 326 l 411 326 l 411 53 l 260 53 l 260 326 l 0 326 z "},",":{"ha":407,"x_min":60,"x_max":346,"o":"m 60 -228 q 116 -23 90 -146 q 144 178 141 99 l 346 178 q 296 -41 342 80 q 204 -228 249 -162 l 60 -228 z "},"-":{"ha":515,"x_min":45,"x_max":471,"o":"m 45 323 l 45 473 l 471 473 l 471 323 l 45 323 z "},".":{"ha":387,"x_min":69,"x_max":318,"o":"m 105 29 q 87 47 105 29 q 69 115 69 64 q 105 202 69 166 q 193 237 140 237 q 282 202 247 237 q 318 115 318 167 q 282 28 318 64 q 193 -7 247 -7 q 105 29 140 -7 z "},"/":{"ha":783,"x_min":18,"x_max":765,"o":"m 18 -139 l 564 1042 l 765 1042 l 220 -139 l 18 -139 z "},":":{"ha":387,"x_min":69,"x_max":318,"o":"m 105 29 q 87 47 105 29 q 69 115 69 64 q 105 202 69 166 q 193 237 140 237 q 282 202 247 237 q 318 115 318 167 q 282 28 318 64 q 193 -7 247 -7 q 105 29 140 -7 m 105 487 q 87 505 105 487 q 69 574 69 523 q 105 660 69 625 q 193 696 140 696 q 282 661 247 696 q 318 574 318 625 q 282 487 318 522 q 193 452 247 452 q 105 487 140 452 z "},";":{"ha":427,"x_min":40,"x_max":355,"o":"m 40 -228 q 97 -24 72 -146 q 126 178 123 98 l 328 178 q 277 -41 324 80 q 186 -228 231 -162 l 40 -228 m 142 487 q 125 505 142 487 q 107 574 107 522 q 142 661 107 625 q 231 696 178 696 q 319 660 283 696 q 355 574 355 625 q 319 487 355 523 q 231 452 283 452 q 142 487 178 452 z "},"<":{"ha":708,"x_min":18,"x_max":690,"o":"m 18 326 l 18 485 l 690 768 l 690 607 l 187 406 l 690 204 l 690 43 l 18 326 z "},"=":{"ha":672,"x_min":0,"x_max":672,"o":"m 0 178 l 0 325 l 672 325 l 672 178 l 0 178 m 0 473 l 0 621 l 672 621 l 672 473 l 0 473 z "},">":{"ha":708,"x_min":18,"x_max":690,"o":"m 18 43 l 18 204 l 521 406 l 18 607 l 18 768 l 690 485 l 690 326 l 18 43 z "},"?":{"ha":712,"x_min":49,"x_max":664,"o":"m 49 733 l 49 936 q 301 993 160 993 q 488 962 407 993 q 617 871 570 932 q 664 726 664 810 q 624 593 664 647 q 503 492 584 538 l 444 457 q 398 414 410 437 q 386 358 386 391 l 386 334 l 197 334 l 197 396 q 298 568 197 510 l 385 619 q 447 708 447 656 q 406 774 447 747 q 301 800 366 800 q 49 733 180 800 m 201 28 q 183 46 201 28 q 165 115 165 64 q 201 202 165 167 q 289 237 236 237 q 378 202 342 237 q 414 115 414 167 q 378 28 414 64 q 289 -7 342 -7 q 201 28 236 -7 z "},"@":{"ha":1165,"x_min":45,"x_max":1122,"o":"m 45 297 q 88 520 45 416 q 206 699 132 625 q 384 816 281 773 q 602 859 486 859 q 809 821 711 859 q 975 720 906 783 q 1083 569 1043 656 q 1122 386 1122 482 q 1042 128 1122 231 q 840 25 962 25 q 699 96 743 25 q 514 20 621 20 q 361 82 415 20 q 304 250 308 144 q 338 418 302 342 q 437 539 374 495 q 576 583 500 583 q 663 563 626 583 q 721 511 701 543 l 730 566 l 863 566 l 806 222 q 860 139 796 139 q 955 208 920 139 q 990 385 990 276 q 963 520 990 456 q 887 631 937 584 q 765 707 838 679 q 603 734 691 734 q 385 677 481 734 q 234 519 288 619 q 180 296 180 419 q 230 72 180 169 q 379 -82 279 -25 q 618 -139 479 -139 q 871 -87 765 -139 l 871 -220 q 618 -262 758 -262 q 390 -224 494 -262 q 208 -115 285 -186 q 88 61 132 -45 q 45 297 45 168 m 437 253 q 466 167 437 199 q 541 135 495 135 q 620 161 585 135 q 672 222 654 186 l 701 390 q 661 447 688 426 q 595 468 633 468 q 480 405 524 468 q 437 253 437 341 z "},"A":{"ha":1019,"x_min":9,"x_max":1011,"o":"m 9 0 l 386 972 l 635 972 l 1011 0 l 793 0 l 718 199 l 298 199 l 225 0 l 9 0 m 368 385 l 647 385 l 507 758 l 368 385 z "},"B":{"ha":855,"x_min":97,"x_max":811,"o":"m 97 0 l 97 972 l 482 972 q 696 898 616 972 q 777 711 777 824 q 744 584 777 637 q 660 505 711 530 q 771 420 732 479 q 811 282 811 360 q 729 75 811 151 q 501 0 648 0 l 97 0 m 298 182 l 461 182 q 558 213 521 182 q 595 300 595 244 q 559 385 595 354 q 461 416 524 416 l 298 416 l 298 182 m 298 578 l 440 578 q 529 608 496 578 q 562 689 562 637 q 529 766 562 739 q 440 794 496 794 l 298 794 l 298 578 z "},"C":{"ha":943,"x_min":49,"x_max":888,"o":"m 49 486 q 77 668 49 585 q 153 810 104 751 q 266 911 201 869 q 405 973 330 953 q 558 993 479 993 q 888 908 728 993 l 888 686 q 733 764 807 738 q 576 790 659 790 q 355 709 441 790 q 269 486 269 628 q 355 263 269 345 q 576 182 441 182 q 732 208 658 182 q 888 286 806 234 l 888 62 q 558 -21 735 -21 q 368 12 458 -21 q 205 106 277 44 q 91 266 134 168 q 49 486 49 364 z "},"D":{"ha":1014,"x_min":97,"x_max":965,"o":"m 97 0 l 97 972 l 473 972 q 656 941 569 972 q 813 850 743 909 q 924 697 882 791 q 965 485 965 602 q 938 311 965 391 q 863 175 910 231 q 753 78 816 118 q 618 19 690 38 q 471 0 547 0 l 97 0 m 302 189 l 467 189 q 567 208 519 189 q 655 262 615 227 q 719 355 695 297 q 743 485 743 413 q 720 621 743 562 q 657 714 696 680 q 570 766 617 749 q 469 783 522 783 l 302 783 l 302 189 z "},"E":{"ha":802,"x_min":97,"x_max":747,"o":"m 97 0 l 97 972 l 747 972 l 747 789 l 298 789 l 298 579 l 704 579 l 704 396 l 298 396 l 298 189 l 747 189 l 747 0 l 97 0 z "},"F":{"ha":790,"x_min":97,"x_max":747,"o":"m 97 0 l 97 972 l 747 972 l 747 783 l 302 783 l 302 558 l 704 558 l 704 371 l 302 371 l 302 0 l 97 0 z "},"G":{"ha":998,"x_min":49,"x_max":888,"o":"m 49 486 q 77 668 49 585 q 153 810 104 751 q 266 911 201 869 q 405 973 330 953 q 558 993 479 993 q 888 908 728 993 l 888 686 q 733 764 807 738 q 576 790 659 790 q 355 709 441 790 q 269 486 269 628 q 354 256 269 335 q 576 178 439 178 q 696 197 633 178 l 696 343 l 452 343 l 452 522 l 888 522 l 888 62 q 558 -21 735 -21 q 368 12 458 -21 q 205 106 277 44 q 91 266 134 168 q 49 486 49 364 z "},"H":{"ha":1023,"x_min":97,"x_max":926,"o":"m 97 0 l 97 972 l 302 972 l 302 587 l 721 587 l 721 972 l 926 972 l 926 0 l 721 0 l 721 392 l 302 392 l 302 0 l 97 0 z "},"I":{"ha":404,"x_min":97,"x_max":307,"o":"m 97 0 l 97 972 l 307 972 l 307 0 l 97 0 z "},"J":{"ha":668,"x_min":52,"x_max":571,"o":"m 52 11 l 52 210 q 214 178 123 178 q 327 224 289 178 q 366 358 366 271 l 366 972 l 571 972 l 571 330 q 481 65 571 151 q 233 -21 391 -21 q 136 -12 188 -21 q 52 11 83 -3 z "},"K":{"ha":932,"x_min":97,"x_max":920,"o":"m 97 0 l 97 972 l 302 972 l 302 579 l 652 972 l 914 972 l 554 574 l 920 0 l 675 0 l 412 415 l 302 294 l 302 0 l 97 0 z "},"L":{"ha":802,"x_min":97,"x_max":753,"o":"m 97 0 l 97 972 l 302 972 l 302 199 l 753 199 l 753 0 l 97 0 z "},"M":{"ha":1250,"x_min":97,"x_max":1153,"o":"m 97 0 l 97 972 l 318 972 l 625 485 l 935 972 l 1153 972 l 1153 0 l 951 0 l 951 646 l 631 143 l 616 143 l 298 646 l 298 0 l 97 0 z "},"N":{"ha":1053,"x_min":97,"x_max":956,"o":"m 97 0 l 97 972 l 325 972 l 757 347 l 757 972 l 956 972 l 956 0 l 755 0 l 296 686 l 296 0 l 97 0 z "},"O":{"ha":1118,"x_min":49,"x_max":1069,"o":"m 77 303 q 63 345 77 303 q 49 486 49 387 q 77 669 49 585 q 155 811 106 753 q 269 912 203 870 q 408 973 334 954 q 558 993 481 993 q 746 961 656 993 q 909 867 836 928 q 1026 708 982 806 q 1069 486 1069 609 q 1041 304 1069 388 q 963 161 1012 220 q 848 60 913 102 q 709 -1 783 18 q 558 -21 635 -21 q 408 -1 481 -21 q 269 60 334 18 q 155 161 203 102 q 77 303 106 220 m 269 486 q 352 266 269 349 q 558 183 435 183 q 765 266 683 183 q 847 486 847 348 q 765 706 847 623 q 558 789 682 789 q 353 706 436 789 q 269 486 269 623 z "},"P":{"ha":850,"x_min":97,"x_max":817,"o":"m 97 0 l 97 972 l 485 972 q 725 880 633 972 q 817 648 817 788 q 725 414 817 507 q 485 322 634 322 l 302 322 l 302 0 l 97 0 m 302 501 l 444 501 q 556 540 514 501 q 597 648 597 578 q 556 755 597 717 q 444 793 514 793 l 302 793 l 302 501 z "},"Q":{"ha":1118,"x_min":49,"x_max":1069,"o":"m 77 303 q 63 345 77 303 q 49 486 49 387 q 77 669 49 585 q 155 811 106 753 q 269 912 203 870 q 408 973 334 954 q 558 993 481 993 q 709 973 635 993 q 848 912 783 954 q 963 811 913 870 q 1041 669 1012 753 q 1069 486 1069 585 q 1027 270 1069 365 q 911 107 985 174 l 1048 -82 l 819 -82 l 751 12 q 558 -21 661 -21 q 408 -1 481 -21 q 269 60 334 18 q 155 161 203 102 q 77 303 106 220 m 267 486 q 290 353 267 414 q 353 254 313 293 q 446 193 393 214 q 558 171 498 171 q 633 179 598 171 l 475 403 l 696 403 l 786 279 q 850 486 850 361 q 766 712 850 626 q 558 798 682 798 q 351 711 436 798 q 267 486 267 625 z "},"R":{"ha":879,"x_min":97,"x_max":832,"o":"m 97 0 l 97 972 l 494 972 q 736 882 644 972 q 829 654 829 792 q 779 473 829 551 q 640 359 729 395 l 832 0 l 607 0 l 444 332 l 302 332 l 302 0 l 97 0 m 302 515 l 457 515 q 568 552 527 515 q 610 654 610 588 q 568 757 610 722 q 457 793 526 793 l 302 793 l 302 515 z "},"S":{"ha":836,"x_min":65,"x_max":781,"o":"m 65 689 q 163 908 65 823 q 436 993 261 993 q 721 933 587 993 l 721 728 q 429 802 560 802 q 321 774 360 802 q 282 701 282 746 q 304 643 282 667 q 367 610 326 618 l 521 576 q 781 283 781 519 q 686 65 781 151 q 428 -21 591 -21 q 72 64 235 -21 l 72 271 q 239 202 136 231 q 428 172 341 172 q 528 200 495 172 q 561 271 561 228 q 535 335 561 308 q 461 372 510 363 l 326 401 q 65 689 65 458 z "},"T":{"ha":904,"x_min":37,"x_max":868,"o":"m 37 782 l 37 972 l 868 972 l 868 782 l 557 781 l 557 -1 l 347 0 l 347 782 l 37 782 z "},"U":{"ha":948,"x_min":90,"x_max":859,"o":"m 90 374 l 90 972 l 296 972 l 296 375 q 342 231 296 285 q 475 178 389 178 q 607 231 562 178 q 653 375 653 285 l 653 972 l 859 972 l 859 374 q 758 84 859 190 q 475 -21 657 -21 q 191 84 292 -21 q 90 374 90 190 z "},"V":{"ha":1005,"x_min":18,"x_max":986,"o":"m 18 972 l 250 972 l 501 396 l 757 972 l 986 972 l 515 -31 l 484 -31 l 18 972 z "},"W":{"ha":1474,"x_min":37,"x_max":1438,"o":"m 37 972 l 267 972 l 439 456 l 652 972 l 823 972 l 1038 456 l 1208 972 l 1438 972 l 1064 -31 l 1032 -31 l 737 681 l 444 -31 l 411 -31 l 37 972 z "},"X":{"ha":935,"x_min":17,"x_max":920,"o":"m 17 0 l 334 496 l 33 972 l 273 972 l 468 650 l 664 972 l 904 972 l 603 496 l 920 0 l 676 0 l 468 339 l 258 0 l 17 0 z "},"Y":{"ha":985,"x_min":18,"x_max":966,"o":"m 18 972 l 254 972 l 493 575 l 732 972 l 966 972 l 599 382 l 599 0 l 387 0 l 387 382 l 18 972 z "},"Z":{"ha":895,"x_min":45,"x_max":860,"o":"m 45 0 l 45 201 l 576 782 l 58 782 l 58 972 l 852 972 l 852 777 l 326 193 l 860 193 l 860 0 l 45 0 z "},"[":{"ha":473,"x_min":58,"x_max":382,"o":"m 58 -216 l 58 1038 l 382 1038 l 382 878 l 228 878 l 228 -57 l 382 -57 l 382 -216 l 58 -216 z "},"\\":{"ha":783,"x_min":18,"x_max":765,"o":"m 18 1042 l 220 1042 l 765 -139 l 564 -139 l 18 1042 z "},"]":{"ha":473,"x_min":93,"x_max":416,"o":"m 93 -57 l 248 -57 l 248 878 l 93 878 l 93 1038 l 416 1038 l 416 -216 l 93 -216 l 93 -57 z "},"^":{"ha":675,"x_min":18,"x_max":656,"o":"m 18 475 l 261 972 l 414 972 l 656 475 l 500 475 l 338 822 l 176 475 l 18 475 z "},"_":{"ha":766,"x_min":21,"x_max":746,"o":"m 21 -69 l 746 -69 l 746 -216 l 21 -216 l 21 -69 z "},"`":{"ha":372,"x_min":37,"x_max":336,"o":"m 37 985 l 243 985 l 336 775 l 193 775 l 37 985 z "},"a":{"ha":733,"x_min":52,"x_max":668,"o":"m 52 211 q 124 369 52 311 q 304 427 197 427 q 473 385 395 427 l 473 432 q 441 503 473 475 q 345 530 410 530 q 90 450 216 530 l 90 640 q 363 701 217 701 q 587 631 506 701 q 668 457 668 560 l 668 0 l 488 0 l 488 45 q 404 -2 454 16 q 294 -21 354 -21 q 119 40 186 -21 q 52 211 52 102 m 241 216 q 272 151 241 175 q 350 127 303 127 q 420 142 387 127 q 473 176 452 157 l 473 258 q 420 287 454 275 q 350 298 387 298 q 272 277 303 298 q 241 216 241 255 z "},"b":{"ha":829,"x_min":83,"x_max":787,"o":"m 83 0 l 83 1007 l 278 1007 l 278 631 q 468 701 355 701 q 637 652 564 701 q 749 522 711 603 q 787 342 787 440 q 749 160 787 242 q 637 28 711 78 q 468 -21 564 -21 q 278 52 362 -21 l 278 0 l 83 0 m 278 236 q 422 163 337 163 q 541 211 495 163 q 586 342 586 259 q 540 471 586 422 q 422 519 494 519 q 278 446 338 519 l 278 236 z "},"c":{"ha":680,"x_min":41,"x_max":621,"o":"m 41 342 q 90 529 41 447 q 222 656 138 612 q 412 701 307 701 q 621 654 522 701 l 621 454 q 422 518 524 518 q 295 471 347 518 q 243 342 243 425 q 294 210 243 256 q 422 164 346 164 q 621 228 527 164 l 621 26 q 412 -21 520 -21 q 146 80 251 -21 q 41 342 41 182 z "},"d":{"ha":825,"x_min":41,"x_max":746,"o":"m 41 342 q 80 522 41 440 q 192 652 118 603 q 361 701 265 701 q 551 631 475 701 l 551 1007 l 746 1007 l 746 0 l 551 0 l 551 52 q 361 -21 467 -21 q 192 28 265 -21 q 80 160 118 78 q 41 342 41 242 m 243 342 q 289 211 243 259 q 407 163 334 163 q 551 236 492 163 l 551 446 q 407 519 492 519 q 289 471 335 519 q 243 342 243 422 z "},"e":{"ha":769,"x_min":41,"x_max":728,"o":"m 41 345 q 88 531 41 449 q 214 657 134 613 q 390 701 293 701 q 638 602 548 701 q 728 342 728 503 q 725 285 728 307 l 244 285 q 299 179 247 218 q 419 140 351 140 q 677 224 551 140 l 677 56 q 557 0 622 20 q 399 -21 492 -21 q 219 21 299 -21 q 90 146 139 62 q 41 345 41 231 m 249 415 l 532 415 q 492 504 528 467 q 390 541 456 541 q 291 503 330 541 q 249 415 252 465 z "},"f":{"ha":498,"x_min":18,"x_max":481,"o":"m 18 518 l 18 679 l 135 679 l 135 774 q 203 947 135 885 q 378 1010 272 1010 q 481 997 431 1010 l 481 827 q 429 832 454 832 q 355 808 382 832 q 328 733 328 784 l 328 679 l 478 679 l 478 518 l 328 518 l 328 0 l 134 0 l 134 518 l 18 518 z "},"g":{"ha":801,"x_min":41,"x_max":736,"o":"m 41 366 q 128 608 41 515 q 353 701 215 701 q 542 631 473 701 l 542 679 l 736 679 l 736 21 q 649 -214 736 -128 q 385 -300 562 -300 q 225 -276 304 -300 q 97 -220 147 -252 l 97 -28 q 237 -98 163 -74 q 375 -122 312 -122 q 501 -87 460 -122 q 542 21 542 -52 l 542 96 q 459 44 508 64 q 353 24 410 24 q 128 119 215 24 q 41 366 41 214 m 243 366 q 284 243 243 288 q 392 197 325 197 q 474 217 435 197 q 542 271 514 237 l 542 456 q 475 508 515 488 q 392 528 435 528 q 284 483 326 528 q 243 366 243 438 z "},"h":{"ha":789,"x_min":83,"x_max":720,"o":"m 83 0 l 83 1007 l 278 1007 l 278 628 q 468 701 354 701 q 561 685 517 701 q 641 638 606 669 q 698 559 677 608 q 720 453 720 511 l 720 0 l 525 0 l 525 404 q 492 491 525 458 q 408 524 458 524 q 278 453 331 524 l 278 0 l 83 0 z "},"i":{"ha":353,"x_min":53,"x_max":297,"o":"m 53 933 q 87 1019 53 986 q 175 1053 122 1053 q 262 1019 228 1053 q 297 933 297 986 q 262 847 297 881 q 175 814 227 814 q 88 847 123 814 q 53 933 53 881 m 79 0 l 79 679 l 273 679 l 273 0 l 79 0 z "},"j":{"ha":370,"x_min":-46,"x_max":313,"o":"m -46 -121 q 0 -125 -28 -125 q 94 -33 94 -125 l 94 679 l 289 679 l 289 -72 q 223 -239 289 -179 q 60 -300 158 -300 q -46 -288 5 -300 l -46 -121 m 68 933 q 103 1019 68 986 q 189 1053 138 1053 q 278 1020 243 1053 q 313 933 313 987 q 278 847 313 881 q 189 814 243 814 q 103 847 138 814 q 68 933 68 881 z "},"k":{"ha":787,"x_min":79,"x_max":783,"o":"m 79 0 l 79 1007 l 273 1007 l 273 433 l 518 679 l 768 679 l 513 421 l 783 0 l 551 0 l 372 279 l 273 180 l 273 0 l 79 0 z "},"l":{"ha":351,"x_min":79,"x_max":273,"o":"m 79 0 l 79 1007 l 273 1007 l 273 0 l 79 0 z "},"m":{"ha":1179,"x_min":83,"x_max":1109,"o":"m 83 0 l 83 679 l 275 679 l 275 625 q 456 701 342 701 q 569 676 517 701 q 652 604 621 651 q 867 701 736 701 q 986 673 932 701 q 1075 588 1040 646 q 1109 453 1109 531 l 1109 0 l 916 0 l 916 404 q 887 492 916 460 q 810 524 859 524 q 694 457 742 524 l 694 453 l 694 0 l 500 0 l 500 404 q 472 492 500 460 q 396 524 445 524 q 278 453 326 524 l 278 0 l 83 0 z "},"n":{"ha":783,"x_min":83,"x_max":714,"o":"m 83 0 l 83 679 l 275 679 l 275 625 q 465 701 351 701 q 558 685 513 701 q 637 638 602 669 q 693 559 673 608 q 714 453 714 511 l 714 0 l 519 0 l 519 404 q 487 491 519 458 q 406 524 455 524 q 278 453 331 524 l 278 0 l 83 0 z "},"o":{"ha":823,"x_min":41,"x_max":782,"o":"m 41 342 q 145 598 41 496 q 411 701 248 701 q 678 598 574 701 q 782 342 782 496 q 735 158 782 240 q 604 27 689 75 q 411 -21 519 -21 q 218 27 303 -21 q 87 158 134 75 q 41 342 41 240 m 243 342 q 291 211 243 260 q 411 163 339 163 q 532 211 484 163 q 581 342 581 260 q 532 471 581 422 q 411 519 484 519 q 291 471 339 519 q 243 342 243 422 z "},"p":{"ha":829,"x_min":83,"x_max":787,"o":"m 83 -262 l 83 681 l 278 681 l 278 631 q 468 701 359 701 q 637 652 564 701 q 749 522 711 604 q 787 340 787 440 q 749 160 787 242 q 637 28 711 78 q 468 -21 563 -21 q 278 52 357 -21 l 278 -262 l 83 -262 m 278 235 q 422 163 338 163 q 540 211 494 163 q 586 340 586 259 q 539 471 585 422 q 422 519 494 519 q 278 446 340 519 l 278 235 z "},"q":{"ha":825,"x_min":41,"x_max":746,"o":"m 41 340 q 80 522 41 440 q 192 652 118 604 q 361 701 265 701 q 551 631 470 701 l 551 681 l 746 681 l 746 -262 l 551 -262 l 551 52 q 361 -21 472 -21 q 192 28 266 -21 q 80 160 118 78 q 41 340 41 242 m 243 340 q 289 211 243 260 q 407 163 335 163 q 551 235 491 163 l 551 446 q 407 519 489 519 q 289 471 335 519 q 243 340 243 422 z "},"r":{"ha":548,"x_min":83,"x_max":507,"o":"m 83 0 l 83 679 l 275 679 l 275 581 q 347 670 300 638 q 457 701 393 701 q 507 697 483 701 l 507 500 q 436 507 477 507 q 336 475 380 507 q 278 393 291 442 l 278 0 l 83 0 z "},"s":{"ha":637,"x_min":56,"x_max":589,"o":"m 56 479 q 129 638 56 576 q 335 701 202 701 q 557 656 456 701 l 557 479 q 334 532 443 532 q 268 517 290 532 q 245 479 245 503 q 307 431 245 444 l 382 415 q 538 345 487 395 q 589 207 589 294 q 510 42 589 104 q 293 -21 432 -21 q 57 26 180 -21 l 57 212 q 181 167 116 184 q 296 150 246 150 q 386 205 386 150 q 323 258 386 247 l 245 273 q 56 479 56 309 z "},"t":{"ha":524,"x_min":18,"x_max":479,"o":"m 18 518 l 18 679 l 140 679 l 140 864 l 328 933 l 328 679 l 479 679 l 479 518 l 328 518 l 328 245 q 424 154 328 154 q 479 163 446 154 l 479 -5 q 363 -21 427 -21 q 275 -8 315 -21 q 202 30 235 4 q 152 99 170 56 q 134 200 134 142 l 134 518 l 18 518 z "},"u":{"ha":783,"x_min":77,"x_max":707,"o":"m 77 227 l 77 679 l 271 679 l 271 275 q 302 189 271 221 q 385 157 334 157 q 513 227 460 157 l 513 679 l 707 679 l 707 0 l 515 0 l 515 54 q 325 -22 436 -22 q 204 6 260 -22 q 113 92 149 34 q 77 227 77 150 z "},"v":{"ha":776,"x_min":9,"x_max":766,"o":"m 9 679 l 225 679 l 389 210 l 554 679 l 766 679 l 511 -1 l 268 0 l 9 679 z "},"w":{"ha":1166,"x_min":21,"x_max":1146,"o":"m 21 679 l 235 679 l 346 214 l 489 679 l 682 679 l 823 214 l 935 679 l 1146 679 l 951 -1 l 713 0 l 585 432 l 460 -1 l 220 0 l 21 679 z "},"x":{"ha":761,"x_min":14,"x_max":747,"o":"m 14 0 l 243 350 l 29 679 l 252 679 l 382 467 l 511 679 l 732 679 l 521 349 l 747 0 l 524 0 l 379 228 l 237 0 l 14 0 z "},"y":{"ha":814,"x_min":9,"x_max":804,"o":"m 9 679 l 225 679 l 410 269 l 589 679 l 804 679 l 378 -281 l 163 -279 l 311 50 l 9 679 z "},"z":{"ha":699,"x_min":46,"x_max":652,"o":"m 46 0 l 46 163 l 386 517 l 52 517 l 52 679 l 644 679 l 644 521 l 304 167 l 652 167 l 652 0 l 46 0 z "},"{":{"ha":612,"x_min":58,"x_max":521,"o":"m 58 332 l 58 489 q 163 517 130 489 q 197 619 197 545 l 197 783 q 211 884 197 840 q 255 964 225 929 q 334 1019 284 1000 q 452 1038 384 1038 l 521 1038 l 521 878 l 475 878 q 393 845 419 878 q 367 746 367 812 l 367 581 q 239 410 367 434 q 367 239 367 385 l 367 75 q 393 -24 367 9 q 475 -57 419 -57 l 521 -57 l 521 -216 l 452 -216 q 334 -197 384 -216 q 255 -143 284 -178 q 211 -64 225 -109 q 197 37 197 -19 l 197 201 q 163 303 197 275 q 58 332 130 332 z "},"|":{"ha":361,"x_min":93,"x_max":268,"o":"m 93 -279 l 93 1042 l 268 1042 l 268 -279 l 93 -279 z "},"}":{"ha":612,"x_min":93,"x_max":555,"o":"m 93 -57 l 139 -57 q 221 -24 195 -57 q 248 75 248 9 l 248 239 q 374 410 248 386 q 248 581 248 433 l 248 746 q 221 845 248 812 q 139 878 195 878 l 93 878 l 93 1038 l 161 1038 q 279 1019 229 1038 q 359 964 330 1000 q 402 884 389 929 q 416 783 416 840 l 416 619 q 450 517 416 545 q 555 489 484 489 l 555 332 q 450 303 484 332 q 416 201 416 275 l 416 37 q 355 -148 416 -79 q 161 -216 294 -216 l 93 -216 l 93 -57 z "},"~":{"ha":764,"x_min":39,"x_max":725,"o":"m 39 393 q 126 499 73 463 q 244 534 180 534 q 376 498 312 534 l 440 464 q 519 441 484 441 q 624 518 584 441 l 725 419 q 637 314 690 349 q 519 278 584 278 q 385 315 453 278 l 321 350 q 244 371 280 371 q 140 294 180 371 l 39 393 z "}," ":{"ha":351,"x_min":0,"x_max":0,"o":""},"¡":{"ha":443,"x_min":97,"x_max":346,"o":"m 97 567 q 133 653 97 618 q 221 689 168 689 q 310 654 275 689 q 346 567 346 618 q 310 480 346 515 q 221 444 275 444 q 133 480 168 444 q 97 567 97 515 m 117 -290 l 147 349 l 296 349 l 325 -290 l 117 -290 z "},"¢":{"ha":680,"x_min":41,"x_max":621,"o":"m 41 342 q 127 582 41 485 q 353 697 214 678 l 353 823 l 492 823 l 492 694 q 621 654 560 684 l 621 454 q 492 511 555 497 l 492 171 q 621 228 555 183 l 621 26 q 492 -14 560 -3 l 492 -196 l 353 -196 l 353 -17 q 127 100 214 2 q 41 342 41 197 m 243 342 q 273 235 243 277 q 353 175 302 193 l 353 507 q 273 446 302 488 q 243 342 243 404 z "},"£":{"ha":815,"x_min":62,"x_max":794,"o":"m 62 0 l 62 205 q 195 382 195 260 l 195 393 l 74 393 l 74 558 l 149 558 q 126 700 126 631 q 229 913 126 833 q 498 993 331 993 q 774 929 636 993 l 774 728 q 498 810 627 810 q 378 772 423 810 q 334 667 334 734 q 351 558 334 623 l 703 558 l 703 393 l 392 393 q 360 273 391 326 q 278 186 328 220 l 794 186 l 794 0 l 62 0 z "},"¤":{"ha":825,"x_min":56,"x_max":770,"o":"m 56 172 l 161 283 q 123 429 123 352 q 164 578 123 512 l 56 689 l 167 799 l 273 688 q 419 726 339 726 q 555 693 494 726 l 659 799 l 770 689 l 671 587 q 717 429 717 514 q 672 273 717 345 l 770 172 l 660 62 l 558 168 q 419 132 498 132 q 271 174 340 132 l 165 62 l 56 172 m 275 429 q 317 325 275 366 q 419 283 358 283 q 520 325 479 283 q 561 429 561 366 q 520 533 561 493 q 419 574 479 574 q 317 533 358 574 q 275 429 275 492 z "},"¥":{"ha":985,"x_min":18,"x_max":966,"o":"m 18 972 l 254 972 l 493 575 l 732 972 l 966 972 l 677 510 l 793 510 l 793 371 l 599 371 l 599 301 l 793 301 l 793 163 l 599 163 l 599 0 l 387 0 l 387 163 l 139 163 l 139 301 l 387 301 l 387 371 l 139 371 l 139 510 l 307 510 l 18 972 z "},"¦":{"ha":361,"x_min":93,"x_max":268,"o":"m 93 208 l 268 208 l 268 -279 l 93 -279 l 93 208 m 93 554 l 93 1042 l 268 1042 l 268 554 l 93 554 z "},"§":{"ha":791,"x_min":81,"x_max":710,"o":"m 81 370 q 105 465 81 422 q 168 534 129 507 q 81 725 81 604 q 169 920 81 848 q 411 993 256 993 q 668 942 545 993 l 668 750 q 404 814 523 814 q 314 791 347 814 q 281 730 281 769 q 347 652 281 680 l 500 591 q 657 491 604 551 q 710 342 710 432 q 686 247 710 289 q 623 176 662 204 q 710 -14 710 109 q 622 -209 710 -136 q 380 -282 534 -282 q 123 -231 248 -282 l 123 -39 q 386 -103 270 -103 q 478 -81 444 -103 q 511 -20 511 -58 q 443 60 511 32 l 292 119 q 134 220 187 160 q 81 370 81 279 m 278 382 q 350 302 278 332 l 458 258 q 499 287 484 267 q 514 329 514 306 q 440 408 514 378 l 332 453 q 292 425 307 444 q 278 382 278 406 z "},"¨":{"ha":562,"x_min":37,"x_max":525,"o":"m 66 812 q 52 827 66 812 q 37 885 37 841 q 66 958 37 929 q 138 986 96 986 q 211 958 181 986 q 241 885 241 929 q 211 812 241 841 q 138 783 181 783 q 66 812 96 783 m 350 812 q 335 826 350 812 q 321 885 321 840 q 350 958 321 930 q 424 986 379 986 q 496 958 467 986 q 525 885 525 929 q 495 812 525 841 q 424 783 466 783 q 350 812 379 783 z "},"©":{"ha":1154,"x_min":69,"x_max":1084,"o":"m 69 486 q 108 687 69 593 q 214 848 147 781 q 375 954 281 916 q 575 993 469 993 q 776 954 682 993 q 938 848 871 916 q 1045 687 1006 781 q 1084 486 1084 593 q 1018 228 1084 344 q 834 45 951 111 q 575 -21 718 -21 q 317 45 433 -21 q 135 228 201 111 q 69 486 69 344 m 191 486 q 299 202 191 312 q 575 93 408 93 q 851 202 743 93 q 960 486 960 312 q 851 769 960 660 q 575 879 743 879 q 299 769 407 879 q 191 486 191 660 m 316 360 q 304 388 316 360 q 292 486 292 416 q 316 613 292 556 q 380 704 340 669 q 472 758 421 739 q 579 777 523 777 q 766 728 669 777 l 766 590 q 585 650 671 650 q 471 607 514 650 q 428 486 428 564 q 471 366 428 409 q 585 322 514 322 q 766 382 671 322 l 766 244 q 579 196 670 196 q 472 215 523 196 q 380 268 421 233 q 316 360 340 303 z "},"ª":{"ha":543,"x_min":60,"x_max":484,"o":"m 60 659 q 110 766 60 726 q 233 806 160 806 q 349 778 296 806 l 349 807 q 327 855 349 836 q 261 875 305 875 q 86 819 178 875 l 86 951 q 273 993 174 993 q 427 944 370 993 q 484 825 484 895 l 484 515 l 358 515 l 358 546 q 227 500 304 500 q 106 542 153 500 q 60 659 60 584 m 192 663 q 213 620 192 635 q 265 604 235 604 q 313 614 290 604 q 349 636 336 623 l 349 690 q 265 718 317 718 q 213 703 235 718 q 192 663 192 688 z "},"«":{"ha":751,"x_min":24,"x_max":700,"o":"m 24 361 l 241 627 l 404 627 l 233 361 l 404 96 l 241 96 l 24 361 m 319 361 l 539 627 l 700 627 l 529 361 l 700 96 l 539 96 l 319 361 z "},"¬":{"ha":732,"x_min":24,"x_max":708,"o":"m 24 376 l 24 524 l 708 524 l 708 123 l 559 123 l 559 376 l 24 376 z "},"­":{"ha":515,"x_min":45,"x_max":471,"o":"m 45 323 l 45 473 l 471 473 l 471 323 l 45 323 z "},"®":{"ha":626,"x_min":41,"x_max":585,"o":"m 120 531 q 81 571 120 531 q 41 722 41 610 q 121 913 41 834 q 313 993 201 993 q 505 913 426 993 q 585 722 585 834 q 506 531 585 610 q 313 452 427 452 q 120 531 199 452 m 173 864 q 146 835 173 864 q 118 722 118 806 q 173 581 118 638 q 313 524 229 524 q 453 581 397 524 q 509 722 509 638 q 453 864 509 806 q 313 921 397 921 q 173 864 229 921 m 215 589 l 215 861 l 330 861 q 402 832 374 861 q 431 764 431 802 q 390 684 431 711 l 437 589 l 357 589 l 321 665 l 289 665 l 289 589 l 215 589 m 289 730 l 321 730 q 346 739 336 730 q 355 764 355 747 q 346 788 355 779 q 321 796 336 796 l 289 796 l 289 730 z "},"¯":{"ha":472,"x_min":37,"x_max":435,"o":"m 37 831 l 37 971 l 435 971 l 435 831 l 37 831 z "},"°":{"ha":515,"x_min":35,"x_max":481,"o":"m 35 775 q 99 930 35 867 q 257 993 164 993 q 415 929 350 993 q 481 775 481 866 q 415 619 481 683 q 257 555 350 555 q 99 619 164 555 q 35 775 35 683 m 171 775 q 195 712 171 736 q 257 688 220 688 q 319 712 295 688 q 343 775 343 736 q 319 837 343 812 q 257 861 294 861 q 196 837 220 861 q 171 775 171 812 z "},"±":{"ha":672,"x_min":0,"x_max":672,"o":"m 0 49 l 0 195 l 672 195 l 672 49 l 0 49 m 0 479 l 0 625 l 260 625 l 260 827 l 411 827 l 411 625 l 672 625 l 672 479 l 411 479 l 411 275 l 260 275 l 260 479 l 0 479 z "},"²":{"ha":570,"x_min":92,"x_max":485,"o":"m 93 441 q 121 611 92 548 q 216 714 149 673 l 286 757 q 314 775 304 768 q 331 794 323 783 q 339 818 339 806 q 317 854 339 841 q 254 867 294 867 q 102 821 164 867 l 102 954 q 265 993 172 993 q 420 948 359 993 q 482 831 482 903 q 452 741 482 778 q 363 668 422 703 l 292 627 q 249 571 249 602 l 485 571 l 485 441 l 93 441 z "},"³":{"ha":583,"x_min":109,"x_max":497,"o":"m 109 458 l 109 589 q 273 543 181 543 q 335 559 313 543 q 357 599 357 574 q 336 638 357 625 q 281 652 315 652 q 227 642 250 652 l 179 762 l 323 848 l 111 848 l 111 972 l 488 972 l 488 831 l 330 742 q 347 743 336 743 q 454 701 410 743 q 497 586 497 658 q 434 464 497 509 q 273 419 370 419 q 109 458 180 419 z "},"´":{"ha":372,"x_min":37,"x_max":336,"o":"m 37 775 l 131 985 l 336 985 l 179 775 l 37 775 z "},"¶":{"ha":770,"x_min":49,"x_max":688,"o":"m 49 672 q 135 888 49 804 q 350 972 220 972 l 688 972 l 688 -279 l 493 -279 l 493 374 l 328 374 q 129 461 208 374 q 49 672 49 549 z "},"·":{"ha":387,"x_min":69,"x_max":318,"o":"m 105 348 q 87 366 105 348 q 69 435 69 384 q 105 521 69 486 q 193 557 140 557 q 282 522 247 557 q 318 435 318 486 q 282 348 318 383 q 193 313 247 313 q 105 348 140 313 z "},"¸":{"ha":386,"x_min":37,"x_max":349,"o":"m 37 -180 q 163 -214 98 -214 q 222 -171 222 -214 q 210 -141 222 -153 q 171 -129 197 -129 q 125 -136 144 -129 l 79 -82 l 131 20 l 260 20 l 200 -56 q 233 -50 211 -50 q 315 -86 282 -50 q 349 -171 349 -121 q 301 -276 349 -239 q 176 -313 254 -313 q 37 -282 103 -313 l 37 -180 z "},"¹":{"ha":497,"x_min":86,"x_max":357,"o":"m 86 775 l 86 911 l 229 982 l 357 982 l 357 441 l 222 441 l 222 842 l 86 775 z "},"º":{"ha":606,"x_min":49,"x_max":557,"o":"m 49 747 q 120 922 49 852 q 302 993 191 993 q 485 922 413 993 q 557 747 557 852 q 485 570 557 641 q 302 500 414 500 q 120 570 191 500 q 49 747 49 641 m 189 747 q 221 659 189 692 q 302 627 254 627 q 384 659 352 627 q 416 747 416 692 q 384 834 416 802 q 302 867 352 867 q 222 834 254 867 q 189 747 189 802 z "},"»":{"ha":751,"x_min":52,"x_max":728,"o":"m 52 96 l 221 361 l 52 627 l 212 627 l 432 361 l 212 96 l 52 96 m 347 96 l 518 361 l 347 627 l 509 627 l 728 361 l 509 96 l 347 96 z "},"¼":{"ha":1162,"x_min":86,"x_max":1111,"o":"m 86 775 l 86 911 l 229 982 l 357 982 l 357 441 l 222 441 l 222 842 l 86 775 m 229 -56 l 705 1042 l 857 1042 l 380 -56 l 229 -56 m 636 111 l 636 252 l 833 541 l 1029 541 l 1029 231 l 1111 231 l 1111 111 l 1029 111 l 1029 0 l 895 0 l 895 111 l 636 111 m 764 231 l 895 231 l 895 422 l 764 231 z "},"½":{"ha":1200,"x_min":86,"x_max":1114,"o":"m 86 775 l 86 911 l 229 982 l 357 982 l 357 441 l 222 441 l 222 842 l 86 775 m 229 -56 l 705 1042 l 857 1042 l 380 -56 l 229 -56 m 722 0 q 750 169 722 107 q 846 272 779 231 l 916 315 q 955 345 942 331 q 968 376 968 358 q 945 412 968 399 q 884 425 923 425 q 730 379 793 425 l 730 513 q 895 551 800 551 q 1049 506 987 551 q 1111 389 1111 461 q 1081 299 1111 336 q 991 227 1051 262 l 921 184 q 878 129 878 159 l 1114 129 l 1114 0 l 722 0 z "},"¾":{"ha":1259,"x_min":109,"x_max":1208,"o":"m 109 458 l 109 589 q 273 543 181 543 q 335 559 313 543 q 357 599 357 574 q 336 638 357 625 q 281 652 315 652 q 227 642 250 652 l 179 762 l 323 848 l 111 848 l 111 972 l 488 972 l 488 831 l 330 742 q 347 743 336 743 q 454 701 410 743 q 497 586 497 658 q 434 464 497 509 q 273 419 370 419 q 109 458 180 419 m 326 -56 l 803 1042 l 954 1042 l 478 -56 l 326 -56 m 733 111 l 733 252 l 930 541 l 1126 541 l 1126 231 l 1208 231 l 1208 111 l 1126 111 l 1126 0 l 991 0 l 991 111 l 733 111 m 861 231 l 991 231 l 991 422 l 861 231 z "},"¿":{"ha":712,"x_min":49,"x_max":664,"o":"m 49 -45 q 89 89 49 35 q 208 191 128 144 l 268 225 q 314 268 301 245 q 326 323 326 291 l 326 349 l 514 349 l 514 286 q 414 114 514 172 l 326 62 q 265 -26 265 25 q 306 -92 265 -66 q 411 -118 347 -118 q 664 -52 534 -118 l 664 -254 q 411 -311 553 -311 q 224 -281 305 -311 q 96 -189 143 -250 q 49 -45 49 -128 m 334 480 q 316 498 334 480 q 298 567 298 515 q 334 654 298 618 q 424 689 370 689 q 512 654 476 689 q 547 567 547 618 q 512 480 547 515 q 424 444 476 444 q 334 480 370 444 z "},"À":{"ha":1019,"x_min":9,"x_max":1011,"o":"m 9 0 l 386 972 l 635 972 l 1011 0 l 793 0 l 718 199 l 298 199 l 225 0 l 9 0 m 311 1291 l 517 1291 l 610 1080 l 467 1080 l 311 1291 m 368 385 l 647 385 l 507 758 l 368 385 z "},"Á":{"ha":1019,"x_min":9,"x_max":1011,"o":"m 9 0 l 386 972 l 635 972 l 1011 0 l 793 0 l 718 199 l 298 199 l 225 0 l 9 0 m 368 385 l 647 385 l 507 758 l 368 385 m 421 1080 l 514 1291 l 720 1291 l 562 1080 l 421 1080 z "},"Â":{"ha":1019,"x_min":9,"x_max":1011,"o":"m 9 0 l 386 972 l 635 972 l 1011 0 l 793 0 l 718 199 l 298 199 l 225 0 l 9 0 m 279 1090 l 414 1291 l 599 1291 l 733 1090 l 595 1090 l 505 1182 l 418 1090 l 279 1090 m 368 385 l 647 385 l 507 758 l 368 385 z "},"Ã":{"ha":1019,"x_min":9,"x_max":1011,"o":"m 9 0 l 386 972 l 635 972 l 1011 0 l 793 0 l 718 199 l 298 199 l 225 0 l 9 0 m 283 1117 q 321 1261 283 1214 q 425 1308 359 1308 q 514 1282 460 1308 l 541 1268 q 593 1251 571 1251 q 631 1305 631 1251 l 739 1305 q 700 1167 739 1220 q 597 1114 661 1114 q 513 1139 559 1114 l 486 1153 q 435 1171 450 1171 q 404 1156 415 1171 q 392 1117 392 1142 l 283 1117 m 368 385 l 647 385 l 507 758 l 368 385 z "},"Ä":{"ha":1019,"x_min":9,"x_max":1011,"o":"m 9 0 l 386 972 l 635 972 l 1011 0 l 793 0 l 718 199 l 298 199 l 225 0 l 9 0 m 296 1124 q 281 1139 296 1124 q 267 1197 267 1153 q 296 1270 267 1241 q 367 1299 325 1299 q 440 1270 410 1299 q 471 1197 471 1241 q 440 1124 471 1153 q 367 1096 410 1096 q 296 1124 325 1096 m 368 385 l 647 385 l 507 758 l 368 385 m 579 1124 q 565 1138 579 1124 q 550 1197 550 1152 q 579 1270 550 1242 q 653 1299 608 1299 q 725 1270 696 1299 q 754 1197 754 1241 q 725 1124 754 1153 q 653 1096 696 1096 q 579 1124 608 1096 z "},"Å":{"ha":1019,"x_min":9,"x_max":1011,"o":"m 9 0 l 386 972 l 635 972 l 1011 0 l 793 0 l 718 199 l 298 199 l 225 0 l 9 0 m 394 1105 q 370 1128 394 1105 q 346 1217 346 1150 q 394 1328 346 1283 q 507 1373 441 1373 q 622 1329 574 1373 q 669 1217 669 1284 q 622 1105 669 1149 q 507 1060 574 1060 q 394 1105 441 1060 m 368 385 l 647 385 l 507 758 l 368 385 m 447 1217 q 463 1175 447 1192 q 505 1158 479 1158 q 550 1175 532 1158 q 567 1217 567 1192 q 549 1259 567 1241 q 505 1276 532 1276 q 464 1259 480 1276 q 447 1217 447 1241 z "},"Æ":{"ha":1275,"x_min":9,"x_max":1219,"o":"m 9 0 l 386 972 l 1219 972 l 1219 789 l 701 789 l 783 579 l 1177 579 l 1177 396 l 856 396 l 937 189 l 1219 189 l 1219 0 l 793 0 l 718 199 l 298 199 l 225 0 l 9 0 m 368 385 l 648 385 l 507 758 l 368 385 z "},"Ç":{"ha":943,"x_min":49,"x_max":888,"o":"m 49 486 q 77 668 49 585 q 153 810 104 751 q 266 911 201 869 q 405 973 330 953 q 558 993 479 993 q 888 908 728 993 l 888 686 q 733 764 807 738 q 576 790 659 790 q 355 709 441 790 q 269 486 269 628 q 355 263 269 345 q 576 182 441 182 q 732 208 658 182 q 888 286 806 234 l 888 62 q 604 -20 752 -12 l 575 -56 q 608 -50 586 -50 q 690 -86 657 -50 q 724 -171 724 -121 q 676 -276 724 -239 q 551 -313 629 -313 q 412 -282 478 -313 l 412 -180 q 538 -214 473 -214 q 597 -171 597 -214 q 585 -141 597 -153 q 546 -129 572 -129 q 500 -136 519 -129 l 454 -82 l 488 -17 q 320 31 398 -6 q 180 130 241 68 q 84 283 119 191 q 49 486 49 375 z "},"È":{"ha":802,"x_min":97,"x_max":747,"o":"m 97 0 l 97 972 l 747 972 l 747 789 l 298 789 l 298 579 l 704 579 l 704 396 l 298 396 l 298 189 l 747 189 l 747 0 l 97 0 m 257 1291 l 463 1291 l 555 1080 l 412 1080 l 257 1291 z "},"É":{"ha":802,"x_min":97,"x_max":747,"o":"m 97 0 l 97 972 l 747 972 l 747 789 l 298 789 l 298 579 l 704 579 l 704 396 l 298 396 l 298 189 l 747 189 l 747 0 l 97 0 m 366 1080 l 458 1291 l 664 1291 l 507 1080 l 366 1080 z "},"Ê":{"ha":802,"x_min":97,"x_max":747,"o":"m 97 0 l 97 972 l 747 972 l 747 789 l 298 789 l 298 579 l 704 579 l 704 396 l 298 396 l 298 189 l 747 189 l 747 0 l 97 0 m 225 1090 l 359 1291 l 545 1291 l 679 1090 l 541 1090 l 452 1182 l 364 1090 l 225 1090 z "},"Ë":{"ha":802,"x_min":97,"x_max":747,"o":"m 97 0 l 97 972 l 747 972 l 747 789 l 298 789 l 298 579 l 704 579 l 704 396 l 298 396 l 298 189 l 747 189 l 747 0 l 97 0 m 241 1124 q 227 1139 241 1124 q 212 1197 212 1153 q 241 1270 212 1241 q 313 1299 271 1299 q 386 1270 356 1299 q 416 1197 416 1241 q 386 1124 416 1153 q 313 1096 356 1096 q 241 1124 271 1096 m 525 1124 q 510 1138 525 1124 q 496 1197 496 1152 q 525 1270 496 1242 q 599 1299 554 1299 q 671 1270 642 1299 q 700 1197 700 1241 q 671 1124 700 1153 q 599 1096 642 1096 q 525 1124 554 1096 z "},"Ì":{"ha":404,"x_min":12,"x_max":311,"o":"m 12 1291 l 218 1291 l 311 1080 l 168 1080 l 12 1291 m 97 0 l 97 972 l 307 972 l 307 0 l 97 0 z "},"Í":{"ha":404,"x_min":97,"x_max":421,"o":"m 97 0 l 97 972 l 307 972 l 307 0 l 97 0 m 122 1080 l 215 1291 l 421 1291 l 264 1080 l 122 1080 z "},"Î":{"ha":404,"x_min":-20,"x_max":435,"o":"m -20 1090 l 115 1291 l 300 1291 l 435 1090 l 296 1090 l 207 1182 l 119 1090 l -20 1090 m 97 0 l 97 972 l 307 972 l 307 0 l 97 0 z "},"Ï":{"ha":404,"x_min":-32,"x_max":456,"o":"m -3 1124 q -17 1139 -3 1124 q -32 1197 -32 1153 q -3 1270 -32 1241 q 68 1299 26 1299 q 142 1270 111 1299 q 172 1197 172 1241 q 142 1124 172 1153 q 68 1096 111 1096 q -3 1124 26 1096 m 97 0 l 97 972 l 307 972 l 307 0 l 97 0 m 280 1124 q 266 1138 280 1124 q 252 1197 252 1152 q 280 1270 252 1242 q 354 1299 309 1299 q 427 1270 397 1299 q 456 1197 456 1241 q 426 1124 456 1153 q 354 1096 397 1096 q 280 1124 309 1096 z "},"Ð":{"ha":1086,"x_min":97,"x_max":1061,"o":"m 97 416 l 97 566 l 193 566 l 193 972 l 570 972 q 752 941 665 972 q 909 850 840 909 q 1020 697 979 791 q 1061 485 1061 602 q 1034 311 1061 391 q 959 175 1006 231 q 849 78 912 118 q 714 19 786 38 q 567 0 643 0 l 193 0 l 193 416 l 97 416 m 399 189 l 562 189 q 663 208 614 189 q 752 262 712 227 q 816 355 792 297 q 840 485 840 413 q 817 621 840 562 q 754 714 793 680 q 666 766 714 749 q 566 783 618 783 l 399 783 l 399 566 l 624 566 l 624 416 l 399 416 l 399 189 z "},"Ñ":{"ha":1053,"x_min":97,"x_max":956,"o":"m 97 0 l 97 972 l 325 972 l 757 347 l 757 972 l 956 972 l 956 0 l 755 0 l 296 686 l 296 0 l 97 0 m 322 1117 q 360 1261 322 1214 q 464 1308 398 1308 q 553 1282 498 1308 l 579 1268 q 632 1251 610 1251 q 669 1305 669 1251 l 778 1305 q 739 1167 778 1220 q 636 1114 700 1114 q 551 1139 597 1114 l 525 1153 q 473 1171 488 1171 q 442 1156 454 1171 q 431 1117 431 1142 l 322 1117 z "},"Ò":{"ha":1118,"x_min":49,"x_max":1069,"o":"m 77 303 q 63 345 77 303 q 49 486 49 387 q 77 669 49 585 q 155 811 106 753 q 269 912 203 870 q 408 973 334 954 q 558 993 481 993 q 746 961 656 993 q 909 867 836 928 q 1026 708 982 806 q 1069 486 1069 609 q 1041 304 1069 388 q 963 161 1012 220 q 848 60 913 102 q 709 -1 783 18 q 558 -21 635 -21 q 408 -1 481 -21 q 269 60 334 18 q 155 161 203 102 q 77 303 106 220 m 269 486 q 352 266 269 349 q 558 183 435 183 q 765 266 683 183 q 847 486 847 348 q 765 706 847 623 q 558 789 682 789 q 353 706 436 789 q 269 486 269 623 m 364 1291 l 570 1291 l 663 1080 l 519 1080 l 364 1291 z "},"Ó":{"ha":1118,"x_min":49,"x_max":1069,"o":"m 77 303 q 63 345 77 303 q 49 486 49 387 q 77 669 49 585 q 155 811 106 753 q 269 912 203 870 q 408 973 334 954 q 558 993 481 993 q 746 961 656 993 q 909 867 836 928 q 1026 708 982 806 q 1069 486 1069 609 q 1041 304 1069 388 q 963 161 1012 220 q 848 60 913 102 q 709 -1 783 18 q 558 -21 635 -21 q 408 -1 481 -21 q 269 60 334 18 q 155 161 203 102 q 77 303 106 220 m 269 486 q 352 266 269 349 q 558 183 435 183 q 765 266 683 183 q 847 486 847 348 q 765 706 847 623 q 558 789 682 789 q 353 706 436 789 q 269 486 269 623 m 472 1080 l 566 1291 l 771 1291 l 614 1080 l 472 1080 z "},"Ô":{"ha":1118,"x_min":49,"x_max":1069,"o":"m 77 303 q 63 345 77 303 q 49 486 49 387 q 77 669 49 585 q 155 811 106 753 q 269 912 203 870 q 408 973 334 954 q 558 993 481 993 q 746 961 656 993 q 909 867 836 928 q 1026 708 982 806 q 1069 486 1069 609 q 1041 304 1069 388 q 963 161 1012 220 q 848 60 913 102 q 709 -1 783 18 q 558 -21 635 -21 q 408 -1 481 -21 q 269 60 334 18 q 155 161 203 102 q 77 303 106 220 m 269 486 q 352 266 269 349 q 558 183 435 183 q 765 266 683 183 q 847 486 847 348 q 765 706 847 623 q 558 789 682 789 q 353 706 436 789 q 269 486 269 623 m 332 1090 l 467 1291 l 652 1291 l 786 1090 l 647 1090 l 558 1182 l 471 1090 l 332 1090 z "},"Õ":{"ha":1118,"x_min":49,"x_max":1069,"o":"m 77 303 q 63 345 77 303 q 49 486 49 387 q 77 669 49 585 q 155 811 106 753 q 269 912 203 870 q 408 973 334 954 q 558 993 481 993 q 746 961 656 993 q 909 867 836 928 q 1026 708 982 806 q 1069 486 1069 609 q 1041 304 1069 388 q 963 161 1012 220 q 848 60 913 102 q 709 -1 783 18 q 558 -21 635 -21 q 408 -1 481 -21 q 269 60 334 18 q 155 161 203 102 q 77 303 106 220 m 269 486 q 352 266 269 349 q 558 183 435 183 q 765 266 683 183 q 847 486 847 348 q 765 706 847 623 q 558 789 682 789 q 353 706 436 789 q 269 486 269 623 m 336 1117 q 374 1261 336 1214 q 478 1308 412 1308 q 567 1282 513 1308 l 593 1268 q 646 1251 623 1251 q 684 1305 684 1251 l 791 1305 q 752 1167 791 1220 q 650 1114 713 1114 q 566 1139 612 1114 l 539 1153 q 488 1171 503 1171 q 456 1156 468 1171 q 444 1117 444 1142 l 336 1117 z "},"Ö":{"ha":1118,"x_min":49,"x_max":1069,"o":"m 77 303 q 63 345 77 303 q 49 486 49 387 q 77 669 49 585 q 155 811 106 753 q 269 912 203 870 q 408 973 334 954 q 558 993 481 993 q 746 961 656 993 q 909 867 836 928 q 1026 708 982 806 q 1069 486 1069 609 q 1041 304 1069 388 q 963 161 1012 220 q 848 60 913 102 q 709 -1 783 18 q 558 -21 635 -21 q 408 -1 481 -21 q 269 60 334 18 q 155 161 203 102 q 77 303 106 220 m 269 486 q 352 266 269 349 q 558 183 435 183 q 765 266 683 183 q 847 486 847 348 q 765 706 847 623 q 558 789 682 789 q 353 706 436 789 q 269 486 269 623 m 348 1124 q 334 1139 348 1124 q 319 1197 319 1153 q 348 1270 319 1241 q 419 1299 377 1299 q 493 1270 463 1299 q 524 1197 524 1241 q 493 1124 524 1153 q 419 1096 463 1096 q 348 1124 377 1096 m 632 1124 q 617 1138 632 1124 q 603 1197 603 1152 q 632 1270 603 1242 q 705 1299 661 1299 q 778 1270 749 1299 q 807 1197 807 1241 q 778 1124 807 1153 q 705 1096 748 1096 q 632 1124 661 1096 z "},"×":{"ha":642,"x_min":24,"x_max":619,"o":"m 24 207 l 215 400 l 26 587 l 134 693 l 321 504 l 511 696 l 619 589 l 428 399 l 616 210 l 511 103 l 322 292 l 129 100 l 24 207 z "},"Ø":{"ha":1118,"x_min":49,"x_max":1069,"o":"m 49 486 q 77 669 49 585 q 155 811 106 753 q 269 912 203 870 q 408 973 334 954 q 558 993 481 993 q 774 951 673 993 l 838 1047 l 965 962 l 905 871 q 1069 486 1069 727 q 1041 304 1069 388 q 963 161 1012 220 q 848 60 913 102 q 709 -1 783 18 q 558 -21 635 -21 q 346 21 446 -21 l 282 -77 l 151 9 l 212 102 q 49 486 49 243 m 269 486 q 335 286 269 371 l 657 774 q 558 789 609 789 q 353 706 436 789 q 269 486 269 623 m 463 199 q 558 183 513 183 q 765 266 683 183 q 847 486 847 348 q 783 686 847 604 l 463 199 z "},"Ù":{"ha":948,"x_min":90,"x_max":859,"o":"m 90 374 l 90 972 l 296 972 l 296 375 q 342 231 296 285 q 475 178 389 178 q 607 231 562 178 q 653 375 653 285 l 653 972 l 859 972 l 859 374 q 758 84 859 190 q 475 -21 657 -21 q 191 84 292 -21 q 90 374 90 190 m 279 1291 l 485 1291 l 578 1080 l 435 1080 l 279 1291 z "},"Ú":{"ha":948,"x_min":90,"x_max":859,"o":"m 90 374 l 90 972 l 296 972 l 296 375 q 342 231 296 285 q 475 178 389 178 q 607 231 562 178 q 653 375 653 285 l 653 972 l 859 972 l 859 374 q 758 84 859 190 q 475 -21 657 -21 q 191 84 292 -21 q 90 374 90 190 m 387 1080 l 481 1291 l 686 1291 l 529 1080 l 387 1080 z "},"Û":{"ha":948,"x_min":90,"x_max":859,"o":"m 90 374 l 90 972 l 296 972 l 296 375 q 342 231 296 285 q 475 178 389 178 q 607 231 562 178 q 653 375 653 285 l 653 972 l 859 972 l 859 374 q 758 84 859 190 q 475 -21 657 -21 q 191 84 292 -21 q 90 374 90 190 m 248 1090 l 382 1291 l 567 1291 l 701 1090 l 562 1090 l 473 1182 l 386 1090 l 248 1090 z "},"Ü":{"ha":948,"x_min":90,"x_max":859,"o":"m 90 374 l 90 972 l 296 972 l 296 375 q 342 231 296 285 q 475 178 389 178 q 607 231 562 178 q 653 375 653 285 l 653 972 l 859 972 l 859 374 q 758 84 859 190 q 475 -21 657 -21 q 191 84 292 -21 q 90 374 90 190 m 264 1124 q 249 1139 264 1124 q 235 1197 235 1153 q 264 1270 235 1241 q 335 1299 293 1299 q 409 1270 378 1299 q 439 1197 439 1241 q 409 1124 439 1153 q 335 1096 378 1096 q 264 1124 293 1096 m 547 1124 q 533 1138 547 1124 q 518 1197 518 1152 q 547 1270 518 1242 q 621 1299 576 1299 q 693 1270 664 1299 q 722 1197 722 1241 q 693 1124 722 1153 q 621 1096 663 1096 q 547 1124 576 1096 z "},"Ý":{"ha":985,"x_min":18,"x_max":966,"o":"m 18 972 l 254 972 l 493 575 l 732 972 l 966 972 l 599 382 l 599 0 l 387 0 l 387 382 l 18 972 m 410 1080 l 503 1291 l 708 1291 l 551 1080 l 410 1080 z "},"Þ":{"ha":850,"x_min":97,"x_max":817,"o":"m 97 0 l 97 972 l 302 972 l 302 843 l 485 843 q 725 751 633 843 q 817 518 817 659 q 725 286 817 378 q 485 193 633 193 l 302 193 l 302 0 l 97 0 m 302 372 l 444 372 q 556 411 514 372 q 597 518 597 450 q 556 626 597 587 q 444 664 514 664 l 302 664 l 302 372 z "},"ß":{"ha":912,"x_min":79,"x_max":864,"o":"m 79 0 l 79 707 q 170 925 79 841 q 414 1010 260 1010 q 555 987 491 1010 q 662 924 619 964 q 728 833 705 885 q 751 724 751 781 q 727 617 751 668 q 667 543 703 566 q 810 444 756 514 q 864 285 864 373 q 776 63 864 147 q 534 -21 688 -21 q 350 14 429 -21 l 350 187 q 517 144 429 144 q 624 181 584 144 q 664 281 664 218 q 616 375 664 337 q 485 414 568 414 l 383 414 l 383 581 l 425 581 q 520 615 483 581 q 557 710 557 650 q 519 797 557 761 q 414 832 482 832 q 311 795 348 832 q 273 696 273 759 l 273 0 l 79 0 z "},"à":{"ha":733,"x_min":52,"x_max":668,"o":"m 52 211 q 124 369 52 311 q 304 427 197 427 q 473 385 395 427 l 473 432 q 441 503 473 475 q 345 530 410 530 q 90 450 216 530 l 90 640 q 363 701 217 701 q 587 631 506 701 q 668 457 668 560 l 668 0 l 488 0 l 488 45 q 404 -2 454 16 q 294 -21 354 -21 q 119 40 186 -21 q 52 211 52 102 m 176 985 l 382 985 l 475 775 l 332 775 l 176 985 m 241 216 q 272 151 241 175 q 350 127 303 127 q 420 142 387 127 q 473 176 452 157 l 473 258 q 420 287 454 275 q 350 298 387 298 q 272 277 303 298 q 241 216 241 255 z "},"á":{"ha":733,"x_min":52,"x_max":668,"o":"m 52 211 q 124 369 52 311 q 304 427 197 427 q 473 385 395 427 l 473 432 q 441 503 473 475 q 345 530 410 530 q 90 450 216 530 l 90 640 q 363 701 217 701 q 587 631 506 701 q 668 457 668 560 l 668 0 l 488 0 l 488 45 q 404 -2 454 16 q 294 -21 354 -21 q 119 40 186 -21 q 52 211 52 102 m 241 216 q 272 151 241 175 q 350 127 303 127 q 420 142 387 127 q 473 176 452 157 l 473 258 q 420 287 454 275 q 350 298 387 298 q 272 277 303 298 q 241 216 241 255 m 285 775 l 378 985 l 583 985 l 427 775 l 285 775 z "},"â":{"ha":733,"x_min":52,"x_max":668,"o":"m 52 211 q 124 369 52 311 q 304 427 197 427 q 473 385 395 427 l 473 432 q 441 503 473 475 q 345 530 410 530 q 90 450 216 530 l 90 640 q 363 701 217 701 q 587 631 506 701 q 668 457 668 560 l 668 0 l 488 0 l 488 45 q 404 -2 454 16 q 294 -21 354 -21 q 119 40 186 -21 q 52 211 52 102 m 144 785 l 279 985 l 464 985 l 599 785 l 460 785 l 371 876 l 283 785 l 144 785 m 241 216 q 272 151 241 175 q 350 127 303 127 q 420 142 387 127 q 473 176 452 157 l 473 258 q 420 287 454 275 q 350 298 387 298 q 272 277 303 298 q 241 216 241 255 z "},"ã":{"ha":733,"x_min":52,"x_max":668,"o":"m 52 211 q 124 369 52 311 q 304 427 197 427 q 473 385 395 427 l 473 432 q 441 503 473 475 q 345 530 410 530 q 90 450 216 530 l 90 640 q 363 701 217 701 q 587 631 506 701 q 668 457 668 560 l 668 0 l 488 0 l 488 45 q 404 -2 454 16 q 294 -21 354 -21 q 119 40 186 -21 q 52 211 52 102 m 149 811 q 186 956 149 909 q 290 1003 224 1003 q 379 977 325 1003 l 406 962 q 458 946 435 946 q 496 1000 496 946 l 604 1000 q 565 862 604 915 q 463 808 526 808 q 378 833 424 808 l 351 847 q 300 865 313 865 q 269 851 280 865 q 257 811 257 836 l 149 811 m 241 216 q 272 151 241 175 q 350 127 303 127 q 420 142 387 127 q 473 176 452 157 l 473 258 q 420 287 454 275 q 350 298 387 298 q 272 277 303 298 q 241 216 241 255 z "},"ä":{"ha":733,"x_min":52,"x_max":668,"o":"m 52 211 q 124 369 52 311 q 304 427 197 427 q 473 385 395 427 l 473 432 q 441 503 473 475 q 345 530 410 530 q 90 450 216 530 l 90 640 q 363 701 217 701 q 587 631 506 701 q 668 457 668 560 l 668 0 l 488 0 l 488 45 q 404 -2 454 16 q 294 -21 354 -21 q 119 40 186 -21 q 52 211 52 102 m 161 819 q 147 833 161 819 q 132 892 132 848 q 161 964 132 936 q 232 993 190 993 q 306 964 275 993 q 336 892 336 936 q 306 819 336 848 q 232 790 275 790 q 161 819 190 790 m 241 216 q 272 151 241 175 q 350 127 303 127 q 420 142 387 127 q 473 176 452 157 l 473 258 q 420 287 454 275 q 350 298 387 298 q 272 277 303 298 q 241 216 241 255 m 444 819 q 430 833 444 819 q 415 892 415 847 q 444 965 415 937 q 518 993 473 993 q 590 964 562 993 q 619 892 619 936 q 590 819 619 848 q 518 790 560 790 q 444 819 473 790 z "},"å":{"ha":733,"x_min":52,"x_max":668,"o":"m 52 211 q 124 369 52 311 q 304 427 197 427 q 473 385 395 427 l 473 432 q 441 503 473 475 q 345 530 410 530 q 90 450 216 530 l 90 640 q 363 701 217 701 q 587 631 506 701 q 668 457 668 560 l 668 0 l 488 0 l 488 45 q 404 -2 454 16 q 294 -21 354 -21 q 119 40 186 -21 q 52 211 52 102 m 257 799 q 233 822 257 799 q 210 911 210 844 q 257 1023 210 977 q 371 1068 305 1068 q 486 1023 438 1068 q 533 911 533 978 q 486 799 533 844 q 371 754 438 754 q 257 799 305 754 m 241 216 q 272 151 241 175 q 350 127 303 127 q 420 142 387 127 q 473 176 452 157 l 473 258 q 420 287 454 275 q 350 298 387 298 q 272 277 303 298 q 241 216 241 255 m 311 911 q 328 869 311 886 q 370 852 344 852 q 413 869 396 852 q 431 911 431 886 q 413 953 431 935 q 370 971 396 971 q 328 953 345 971 q 311 911 311 935 z "},"æ":{"ha":1187,"x_min":52,"x_max":1146,"o":"m 52 211 q 124 369 52 311 q 304 427 197 427 q 473 385 395 427 l 473 432 q 441 503 473 475 q 345 530 410 530 q 90 450 216 530 l 90 640 q 363 701 217 701 q 590 621 511 701 q 802 701 677 701 q 1054 602 961 701 q 1146 342 1146 502 q 1143 285 1146 307 l 663 285 q 718 179 665 218 q 838 140 770 140 q 1096 224 969 140 l 1096 56 q 817 -21 977 -21 q 567 82 664 -21 q 294 -21 456 -21 q 119 40 186 -21 q 52 211 52 102 m 241 216 q 272 151 241 175 q 350 127 303 127 q 500 189 441 127 q 481 267 486 229 q 350 298 423 298 q 272 277 303 298 q 241 216 241 255 m 667 415 l 950 415 q 910 504 947 467 q 808 541 874 541 q 709 503 748 541 q 667 415 670 465 z "},"ç":{"ha":680,"x_min":41,"x_max":621,"o":"m 41 342 q 90 529 41 447 q 222 656 138 612 q 412 701 307 701 q 621 654 522 701 l 621 454 q 422 518 524 518 q 295 471 347 518 q 243 342 243 425 q 294 210 243 256 q 422 164 346 164 q 621 228 527 164 l 621 26 q 440 -20 533 -15 l 412 -56 q 446 -50 423 -50 q 528 -86 494 -50 q 561 -171 561 -121 q 513 -276 561 -239 q 389 -313 466 -313 q 250 -282 316 -313 l 250 -180 q 375 -214 311 -214 q 435 -171 435 -214 q 422 -141 435 -153 q 383 -129 409 -129 q 338 -136 357 -129 l 292 -82 l 326 -12 q 120 109 199 13 q 41 342 41 205 z "},"è":{"ha":769,"x_min":41,"x_max":728,"o":"m 41 345 q 88 531 41 449 q 214 657 134 613 q 390 701 293 701 q 638 602 548 701 q 728 342 728 503 q 725 285 728 307 l 244 285 q 299 179 247 218 q 419 140 351 140 q 677 224 551 140 l 677 56 q 557 0 622 20 q 399 -21 492 -21 q 219 21 299 -21 q 90 146 139 62 q 41 345 41 231 m 197 985 l 403 985 l 496 775 l 353 775 l 197 985 m 249 415 l 532 415 q 492 504 528 467 q 390 541 456 541 q 291 503 330 541 q 249 415 252 465 z "},"é":{"ha":769,"x_min":41,"x_max":728,"o":"m 41 345 q 88 531 41 449 q 214 657 134 613 q 390 701 293 701 q 638 602 548 701 q 728 342 728 503 q 725 285 728 307 l 244 285 q 299 179 247 218 q 419 140 351 140 q 677 224 551 140 l 677 56 q 557 0 622 20 q 399 -21 492 -21 q 219 21 299 -21 q 90 146 139 62 q 41 345 41 231 m 249 415 l 532 415 q 492 504 528 467 q 390 541 456 541 q 291 503 330 541 q 249 415 252 465 m 306 775 l 399 985 l 604 985 l 447 775 l 306 775 z "},"ê":{"ha":769,"x_min":41,"x_max":728,"o":"m 41 345 q 88 531 41 449 q 214 657 134 613 q 390 701 293 701 q 638 602 548 701 q 728 342 728 503 q 725 285 728 307 l 244 285 q 299 179 247 218 q 419 140 351 140 q 677 224 551 140 l 677 56 q 557 0 622 20 q 399 -21 492 -21 q 219 21 299 -21 q 90 146 139 62 q 41 345 41 231 m 165 785 l 300 985 l 485 985 l 619 785 l 481 785 l 392 876 l 304 785 l 165 785 m 249 415 l 532 415 q 492 504 528 467 q 390 541 456 541 q 291 503 330 541 q 249 415 252 465 z "},"ë":{"ha":769,"x_min":41,"x_max":728,"o":"m 41 345 q 88 531 41 449 q 214 657 134 613 q 390 701 293 701 q 638 602 548 701 q 728 342 728 503 q 725 285 728 307 l 244 285 q 299 179 247 218 q 419 140 351 140 q 677 224 551 140 l 677 56 q 557 0 622 20 q 399 -21 492 -21 q 219 21 299 -21 q 90 146 139 62 q 41 345 41 231 m 182 819 q 167 833 182 819 q 153 892 153 848 q 182 964 153 936 q 253 993 211 993 q 327 964 296 993 q 357 892 357 936 q 327 819 357 848 q 253 790 296 790 q 182 819 211 790 m 249 415 l 532 415 q 492 504 528 467 q 390 541 456 541 q 291 503 330 541 q 249 415 252 465 m 465 819 q 451 833 465 819 q 436 892 436 847 q 465 965 436 937 q 539 993 494 993 q 611 964 583 993 q 640 892 640 936 q 611 819 640 848 q 539 790 581 790 q 465 819 494 790 z "},"ì":{"ha":353,"x_min":-14,"x_max":285,"o":"m -14 985 l 192 985 l 285 775 l 142 775 l -14 985 m 79 0 l 79 679 l 273 679 l 273 0 l 79 0 z "},"í":{"ha":353,"x_min":79,"x_max":393,"o":"m 79 0 l 79 679 l 273 679 l 273 0 l 79 0 m 94 775 l 187 985 l 393 985 l 236 775 l 94 775 z "},"î":{"ha":353,"x_min":-46,"x_max":408,"o":"m -46 785 l 89 985 l 273 985 l 408 785 l 269 785 l 180 876 l 93 785 l -46 785 m 79 0 l 79 679 l 273 679 l 273 0 l 79 0 z "},"ï":{"ha":353,"x_min":-58,"x_max":429,"o":"m -30 819 q -44 833 -30 819 q -58 892 -58 848 q -30 964 -58 936 q 41 993 -1 993 q 115 964 85 993 q 146 892 146 936 q 115 819 146 848 q 41 790 85 790 q -30 819 -1 790 m 79 0 l 79 679 l 273 679 l 273 0 l 79 0 m 254 819 q 240 833 254 819 q 225 892 225 847 q 254 965 225 937 q 328 993 283 993 q 400 964 371 993 q 429 892 429 936 q 400 819 429 848 q 328 790 370 790 q 254 819 283 790 z "},"ð":{"ha":805,"x_min":41,"x_max":764,"o":"m 86 154 q 64 194 86 154 q 41 330 41 234 q 86 506 41 427 q 215 633 132 586 q 403 681 298 681 q 500 664 454 681 q 361 821 456 759 l 260 718 l 191 789 l 268 867 q 138 892 205 888 l 138 1032 q 378 977 267 1025 l 513 1109 l 582 1042 l 468 928 q 688 674 612 833 q 764 330 764 515 q 719 154 764 234 q 591 26 674 74 q 403 -21 508 -21 q 215 26 298 -21 q 86 154 132 74 m 289 451 q 266 428 289 451 q 243 330 243 405 q 289 209 243 256 q 403 163 335 163 q 516 209 471 163 q 562 330 562 256 q 516 451 562 405 q 403 497 471 497 q 289 451 334 497 z "},"ñ":{"ha":783,"x_min":83,"x_max":714,"o":"m 83 0 l 83 679 l 275 679 l 275 625 q 465 701 351 701 q 558 685 513 701 q 637 638 602 669 q 693 559 673 608 q 714 453 714 511 l 714 0 l 519 0 l 519 404 q 487 491 519 458 q 406 524 455 524 q 278 453 331 524 l 278 0 l 83 0 m 193 811 q 231 956 193 909 q 335 1003 269 1003 q 424 977 370 1003 l 450 962 q 503 946 480 946 q 541 1000 541 946 l 648 1000 q 610 862 648 915 q 507 808 571 808 q 422 833 469 808 l 396 847 q 345 865 358 865 q 313 851 325 865 q 301 811 301 836 l 193 811 z "},"ò":{"ha":823,"x_min":41,"x_max":782,"o":"m 41 342 q 145 598 41 496 q 411 701 248 701 q 678 598 574 701 q 782 342 782 496 q 735 158 782 240 q 604 27 689 75 q 411 -21 519 -21 q 218 27 303 -21 q 87 158 134 75 q 41 342 41 240 m 215 985 l 421 985 l 514 775 l 371 775 l 215 985 m 243 342 q 291 211 243 260 q 411 163 339 163 q 532 211 484 163 q 581 342 581 260 q 532 471 581 422 q 411 519 484 519 q 291 471 339 519 q 243 342 243 422 z "},"ó":{"ha":823,"x_min":41,"x_max":782,"o":"m 41 342 q 145 598 41 496 q 411 701 248 701 q 678 598 574 701 q 782 342 782 496 q 735 158 782 240 q 604 27 689 75 q 411 -21 519 -21 q 218 27 303 -21 q 87 158 134 75 q 41 342 41 240 m 243 342 q 291 211 243 260 q 411 163 339 163 q 532 211 484 163 q 581 342 581 260 q 532 471 581 422 q 411 519 484 519 q 291 471 339 519 q 243 342 243 422 m 323 775 l 416 985 l 623 985 l 465 775 l 323 775 z "},"ô":{"ha":823,"x_min":41,"x_max":782,"o":"m 41 342 q 145 598 41 496 q 411 701 248 701 q 678 598 574 701 q 782 342 782 496 q 735 158 782 240 q 604 27 689 75 q 411 -21 519 -21 q 218 27 303 -21 q 87 158 134 75 q 41 342 41 240 m 183 785 l 318 985 l 503 985 l 637 785 l 498 785 l 410 876 l 322 785 l 183 785 m 243 342 q 291 211 243 260 q 411 163 339 163 q 532 211 484 163 q 581 342 581 260 q 532 471 581 422 q 411 519 484 519 q 291 471 339 519 q 243 342 243 422 z "},"õ":{"ha":823,"x_min":41,"x_max":782,"o":"m 41 342 q 145 598 41 496 q 411 701 248 701 q 678 598 574 701 q 782 342 782 496 q 735 158 782 240 q 604 27 689 75 q 411 -21 519 -21 q 218 27 303 -21 q 87 158 134 75 q 41 342 41 240 m 187 811 q 225 956 187 909 q 329 1003 263 1003 q 418 977 363 1003 l 444 962 q 497 946 473 946 q 534 1000 534 946 l 643 1000 q 604 862 643 915 q 501 808 565 808 q 416 833 463 808 l 390 847 q 339 865 352 865 q 308 851 319 865 q 296 811 296 836 l 187 811 m 243 342 q 291 211 243 260 q 411 163 339 163 q 532 211 484 163 q 581 342 581 260 q 532 471 581 422 q 411 519 484 519 q 291 471 339 519 q 243 342 243 422 z "},"ö":{"ha":823,"x_min":41,"x_max":782,"o":"m 41 342 q 145 598 41 496 q 411 701 248 701 q 678 598 574 701 q 782 342 782 496 q 735 158 782 240 q 604 27 689 75 q 411 -21 519 -21 q 218 27 303 -21 q 87 158 134 75 q 41 342 41 240 m 200 819 q 185 833 200 819 q 171 892 171 848 q 200 964 171 936 q 271 993 229 993 q 345 964 314 993 q 375 892 375 936 q 345 819 375 848 q 271 790 314 790 q 200 819 229 790 m 243 342 q 291 211 243 260 q 411 163 339 163 q 532 211 484 163 q 581 342 581 260 q 532 471 581 422 q 411 519 484 519 q 291 471 339 519 q 243 342 243 422 m 483 819 q 469 833 483 819 q 454 892 454 847 q 483 965 454 937 q 557 993 512 993 q 629 964 600 993 q 659 892 659 936 q 629 819 659 848 q 557 790 600 790 q 483 819 512 790 z "},"÷":{"ha":672,"x_min":0,"x_max":672,"o":"m 0 326 l 0 472 l 672 472 l 672 326 l 0 326 m 240 161 q 268 228 240 201 q 335 256 295 256 q 402 228 374 256 q 429 161 429 200 q 402 93 429 121 q 335 65 375 65 q 267 93 294 65 q 240 161 240 121 m 240 637 q 267 705 240 677 q 335 733 294 733 q 402 705 374 733 q 429 637 429 677 q 402 570 429 597 q 335 543 375 543 q 267 570 294 543 q 240 637 240 597 z "},"ø":{"ha":823,"x_min":41,"x_max":782,"o":"m 41 342 q 145 598 41 496 q 411 701 248 701 q 555 676 489 701 l 603 749 l 713 677 l 667 608 q 752 490 722 559 q 782 342 782 421 q 735 158 782 240 q 604 27 689 75 q 411 -21 519 -21 q 269 4 332 -21 l 224 -66 l 111 5 l 155 72 q 71 192 101 122 q 41 342 41 261 m 243 342 q 268 241 243 283 l 449 515 q 411 519 431 519 q 291 471 339 519 q 243 342 243 422 m 376 165 q 411 163 398 163 q 532 211 484 163 q 581 342 581 260 q 555 439 581 399 l 376 165 z "},"ù":{"ha":783,"x_min":77,"x_max":707,"o":"m 77 227 l 77 679 l 271 679 l 271 275 q 302 189 271 221 q 385 157 334 157 q 513 227 460 157 l 513 679 l 707 679 l 707 0 l 515 0 l 515 54 q 325 -22 436 -22 q 204 6 260 -22 q 113 92 149 34 q 77 227 77 150 m 193 985 l 399 985 l 492 775 l 349 775 l 193 985 z "},"ú":{"ha":783,"x_min":77,"x_max":707,"o":"m 77 227 l 77 679 l 271 679 l 271 275 q 302 189 271 221 q 385 157 334 157 q 513 227 460 157 l 513 679 l 707 679 l 707 0 l 515 0 l 515 54 q 325 -22 436 -22 q 204 6 260 -22 q 113 92 149 34 q 77 227 77 150 m 302 775 l 396 985 l 602 985 l 444 775 l 302 775 z "},"û":{"ha":783,"x_min":77,"x_max":707,"o":"m 77 227 l 77 679 l 271 679 l 271 275 q 302 189 271 221 q 385 157 334 157 q 513 227 460 157 l 513 679 l 707 679 l 707 0 l 515 0 l 515 54 q 325 -22 436 -22 q 204 6 260 -22 q 113 92 149 34 q 77 227 77 150 m 161 785 l 296 985 l 481 985 l 615 785 l 476 785 l 387 876 l 300 785 l 161 785 z "},"ü":{"ha":783,"x_min":77,"x_max":707,"o":"m 77 227 l 77 679 l 271 679 l 271 275 q 302 189 271 221 q 385 157 334 157 q 513 227 460 157 l 513 679 l 707 679 l 707 0 l 515 0 l 515 54 q 325 -22 436 -22 q 204 6 260 -22 q 113 92 149 34 q 77 227 77 150 m 178 819 q 163 833 178 819 q 149 892 149 848 q 178 964 149 936 q 249 993 207 993 q 322 964 292 993 q 353 892 353 936 q 322 819 353 848 q 249 790 292 790 q 178 819 207 790 m 461 819 q 446 833 461 819 q 432 892 432 847 q 461 965 432 937 q 534 993 490 993 q 607 964 578 993 q 636 892 636 936 q 607 819 636 848 q 534 790 577 790 q 461 819 490 790 z "},"ý":{"ha":814,"x_min":9,"x_max":804,"o":"m 9 679 l 225 679 l 410 269 l 589 679 l 804 679 l 378 -281 l 163 -279 l 311 50 l 9 679 m 322 775 l 415 985 l 621 985 l 464 775 l 322 775 z "},"þ":{"ha":825,"x_min":79,"x_max":783,"o":"m 79 -262 l 79 1007 l 273 1007 l 273 631 q 464 701 351 701 q 633 652 559 701 q 745 522 707 604 q 783 340 783 440 q 745 160 783 242 q 633 28 707 78 q 464 -21 559 -21 q 273 52 353 -21 l 273 -262 l 79 -262 m 273 235 q 418 163 334 163 q 536 211 490 163 q 582 340 582 260 q 535 471 581 422 q 418 519 488 519 q 273 446 336 519 l 273 235 z "},"ÿ":{"ha":814,"x_min":9,"x_max":804,"o":"m 9 679 l 225 679 l 410 269 l 589 679 l 804 679 l 378 -281 l 163 -279 l 311 50 l 9 679 m 198 819 q 184 833 198 819 q 170 892 170 848 q 198 964 170 936 q 269 993 227 993 q 343 964 313 993 q 374 892 374 936 q 343 819 374 848 q 269 790 313 790 q 198 819 227 790 m 482 819 q 467 833 482 819 q 453 892 453 847 q 482 965 453 937 q 555 993 511 993 q 628 964 599 993 q 657 892 657 936 q 628 819 657 848 q 555 790 598 790 q 482 819 511 790 z "},"Ā":{"ha":1019,"x_min":9,"x_max":1011,"o":"m 9 0 l 386 972 l 635 972 l 1011 0 l 793 0 l 718 199 l 298 199 l 225 0 l 9 0 m 311 1136 l 311 1276 l 708 1276 l 708 1136 l 311 1136 m 368 385 l 647 385 l 507 758 l 368 385 z "},"ā":{"ha":733,"x_min":52,"x_max":668,"o":"m 52 211 q 124 369 52 311 q 304 427 197 427 q 473 385 395 427 l 473 432 q 441 503 473 475 q 345 530 410 530 q 90 450 216 530 l 90 640 q 363 701 217 701 q 587 631 506 701 q 668 457 668 560 l 668 0 l 488 0 l 488 45 q 404 -2 454 16 q 294 -21 354 -21 q 119 40 186 -21 q 52 211 52 102 m 176 831 l 176 971 l 574 971 l 574 831 l 176 831 m 241 216 q 272 151 241 175 q 350 127 303 127 q 420 142 387 127 q 473 176 452 157 l 473 258 q 420 287 454 275 q 350 298 387 298 q 272 277 303 298 q 241 216 241 255 z "},"Ă":{"ha":1019,"x_min":9,"x_max":1011,"o":"m 9 0 l 386 972 l 635 972 l 1011 0 l 793 0 l 718 199 l 298 199 l 225 0 l 9 0 m 297 1291 l 419 1291 q 444 1233 420 1255 q 507 1210 467 1210 q 569 1233 547 1210 q 593 1291 591 1255 l 717 1291 q 662 1139 715 1193 q 507 1084 608 1084 q 354 1139 409 1084 q 297 1291 298 1194 m 368 385 l 647 385 l 507 758 l 368 385 z "},"ă":{"ha":733,"x_min":52,"x_max":668,"o":"m 52 211 q 124 369 52 311 q 304 427 197 427 q 473 385 395 427 l 473 432 q 441 503 473 475 q 345 530 410 530 q 90 450 216 530 l 90 640 q 363 701 217 701 q 587 631 506 701 q 668 457 668 560 l 668 0 l 488 0 l 488 45 q 404 -2 454 16 q 294 -21 354 -21 q 119 40 186 -21 q 52 211 52 102 m 161 985 l 283 985 q 308 927 285 949 q 371 904 331 904 q 433 927 410 904 q 457 985 456 949 l 581 985 q 525 833 579 887 q 371 779 471 779 q 218 833 273 779 q 161 985 163 888 m 241 216 q 272 151 241 175 q 350 127 303 127 q 420 142 387 127 q 473 176 452 157 l 473 258 q 420 287 454 275 q 350 298 387 298 q 272 277 303 298 q 241 216 241 255 z "},"Ą":{"ha":1019,"x_min":9,"x_max":1011,"o":"m 9 0 l 386 972 l 635 972 l 1011 0 l 1010 0 q 924 -57 963 -21 q 885 -131 885 -94 q 906 -172 885 -159 q 957 -184 926 -184 q 1010 -175 985 -184 l 1010 -298 q 921 -313 971 -313 q 832 -298 873 -313 q 765 -251 792 -284 q 737 -172 737 -218 q 847 0 737 -70 l 793 0 l 718 199 l 298 199 l 225 0 l 9 0 m 368 385 l 647 385 l 507 758 l 368 385 z "},"ą":{"ha":733,"x_min":52,"x_max":668,"o":"m 52 211 q 124 369 52 311 q 304 427 197 427 q 473 385 395 427 l 473 432 q 441 503 473 475 q 345 530 410 530 q 90 450 216 530 l 90 640 q 363 701 217 701 q 587 631 506 701 q 668 457 668 560 l 668 0 q 582 -57 621 -21 q 543 -131 543 -94 q 564 -172 543 -159 q 615 -184 585 -184 q 668 -175 643 -184 l 668 -298 q 579 -313 629 -313 q 491 -298 531 -313 q 423 -251 450 -284 q 396 -172 396 -218 q 505 0 396 -70 l 488 0 l 488 45 q 404 -2 454 16 q 294 -21 354 -21 q 119 40 186 -21 q 52 211 52 102 m 241 216 q 272 151 241 175 q 350 127 303 127 q 420 142 387 127 q 473 176 452 157 l 473 258 q 420 287 454 275 q 350 298 387 298 q 272 277 303 298 q 241 216 241 255 z "},"Ć":{"ha":943,"x_min":49,"x_max":888,"o":"m 49 486 q 77 668 49 585 q 153 810 104 751 q 266 911 201 869 q 405 973 330 953 q 558 993 479 993 q 888 908 728 993 l 888 686 q 733 764 807 738 q 576 790 659 790 q 355 709 441 790 q 269 486 269 628 q 355 263 269 345 q 576 182 441 182 q 732 208 658 182 q 888 286 806 234 l 888 62 q 558 -21 735 -21 q 368 12 458 -21 q 205 106 277 44 q 91 266 134 168 q 49 486 49 364 m 471 1080 l 564 1291 l 770 1291 l 612 1080 l 471 1080 z "},"ć":{"ha":680,"x_min":41,"x_max":621,"o":"m 41 342 q 90 529 41 447 q 222 656 138 612 q 412 701 307 701 q 621 654 522 701 l 621 454 q 422 518 524 518 q 295 471 347 518 q 243 342 243 425 q 294 210 243 256 q 422 164 346 164 q 621 228 527 164 l 621 26 q 412 -21 520 -21 q 146 80 251 -21 q 41 342 41 182 m 313 775 l 406 985 l 611 985 l 454 775 l 313 775 z "},"Ĉ":{"ha":943,"x_min":49,"x_max":888,"o":"m 49 486 q 77 668 49 585 q 153 810 104 751 q 266 911 201 869 q 405 973 330 953 q 558 993 479 993 q 888 908 728 993 l 888 686 q 733 764 807 738 q 576 790 659 790 q 355 709 441 790 q 269 486 269 628 q 355 263 269 345 q 576 182 441 182 q 732 208 658 182 q 888 286 806 234 l 888 62 q 558 -21 735 -21 q 368 12 458 -21 q 205 106 277 44 q 91 266 134 168 q 49 486 49 364 m 330 1090 l 465 1291 l 650 1291 l 785 1090 l 646 1090 l 557 1182 l 469 1090 l 330 1090 z "},"ĉ":{"ha":680,"x_min":41,"x_max":627,"o":"m 41 342 q 90 529 41 447 q 222 656 138 612 q 412 701 307 701 q 621 654 522 701 l 621 454 q 422 518 524 518 q 295 471 347 518 q 243 342 243 425 q 294 210 243 256 q 422 164 346 164 q 621 228 527 164 l 621 26 q 412 -21 520 -21 q 146 80 251 -21 q 41 342 41 182 m 172 785 l 307 985 l 492 985 l 627 785 l 488 785 l 399 876 l 311 785 l 172 785 z "},"Ċ":{"ha":943,"x_min":49,"x_max":888,"o":"m 49 486 q 77 668 49 585 q 153 810 104 751 q 266 911 201 869 q 405 973 330 953 q 558 993 479 993 q 888 908 728 993 l 888 686 q 733 764 807 738 q 576 790 659 790 q 355 709 441 790 q 269 486 269 628 q 355 263 269 345 q 576 182 441 182 q 732 208 658 182 q 888 286 806 234 l 888 62 q 558 -21 735 -21 q 368 12 458 -21 q 205 106 277 44 q 91 266 134 168 q 49 486 49 364 m 436 1239 q 471 1325 436 1292 q 557 1358 505 1358 q 646 1325 610 1358 q 681 1239 681 1292 q 646 1153 681 1187 q 557 1120 610 1120 q 471 1153 505 1120 q 436 1239 436 1187 z "},"ċ":{"ha":680,"x_min":41,"x_max":621,"o":"m 41 342 q 90 529 41 447 q 222 656 138 612 q 412 701 307 701 q 621 654 522 701 l 621 454 q 422 518 524 518 q 295 471 347 518 q 243 342 243 425 q 294 210 243 256 q 422 164 346 164 q 621 228 527 164 l 621 26 q 412 -21 520 -21 q 146 80 251 -21 q 41 342 41 182 m 278 933 q 313 1019 278 986 q 399 1053 347 1053 q 487 1020 452 1053 q 522 933 522 987 q 487 847 522 881 q 399 814 452 814 q 313 847 347 814 q 278 933 278 881 z "},"Č":{"ha":943,"x_min":49,"x_max":888,"o":"m 49 486 q 77 668 49 585 q 153 810 104 751 q 266 911 201 869 q 405 973 330 953 q 558 993 479 993 q 888 908 728 993 l 888 686 q 733 764 807 738 q 576 790 659 790 q 355 709 441 790 q 269 486 269 628 q 355 263 269 345 q 576 182 441 182 q 732 208 658 182 q 888 286 806 234 l 888 62 q 558 -21 735 -21 q 368 12 458 -21 q 205 106 277 44 q 91 266 134 168 q 49 486 49 364 m 339 1291 l 478 1291 l 566 1198 l 654 1291 l 793 1291 l 659 1090 l 473 1090 l 339 1291 z "},"č":{"ha":680,"x_min":41,"x_max":635,"o":"m 41 342 q 90 529 41 447 q 222 656 138 612 q 412 701 307 701 q 621 654 522 701 l 621 454 q 422 518 524 518 q 295 471 347 518 q 243 342 243 425 q 294 210 243 256 q 422 164 346 164 q 621 228 527 164 l 621 26 q 412 -21 520 -21 q 146 80 251 -21 q 41 342 41 182 m 180 985 l 319 985 l 407 893 l 496 985 l 635 985 l 500 785 l 315 785 l 180 985 z "},"Ď":{"ha":1014,"x_min":97,"x_max":965,"o":"m 97 0 l 97 972 l 473 972 q 656 941 569 972 q 813 850 743 909 q 924 697 882 791 q 965 485 965 602 q 938 311 965 391 q 863 175 910 231 q 753 78 816 118 q 618 19 690 38 q 471 0 547 0 l 97 0 m 252 1291 l 390 1291 l 478 1198 l 567 1291 l 705 1291 l 571 1090 l 386 1090 l 252 1291 m 302 189 l 467 189 q 567 208 519 189 q 655 262 615 227 q 719 355 695 297 q 743 485 743 413 q 720 621 743 562 q 657 714 696 680 q 570 766 617 749 q 469 783 522 783 l 302 783 l 302 189 z "},"ď":{"ha":833,"x_min":41,"x_max":1013,"o":"m 41 342 q 80 522 41 440 q 192 652 118 603 q 361 701 265 701 q 551 631 475 701 l 551 1007 l 746 1007 l 746 0 l 551 0 l 551 52 q 361 -21 467 -21 q 192 28 265 -21 q 80 160 118 78 q 41 342 41 242 m 243 342 q 289 211 243 259 q 407 163 334 163 q 551 236 492 163 l 551 446 q 407 519 492 519 q 289 471 335 519 q 243 342 243 422 m 803 742 l 827 1007 l 1013 1007 l 935 742 l 803 742 z "},"Đ":{"ha":1086,"x_min":97,"x_max":1061,"o":"m 97 416 l 97 566 l 193 566 l 193 972 l 570 972 q 752 941 665 972 q 909 850 840 909 q 1020 697 979 791 q 1061 485 1061 602 q 1034 311 1061 391 q 959 175 1006 231 q 849 78 912 118 q 714 19 786 38 q 567 0 643 0 l 193 0 l 193 416 l 97 416 m 399 189 l 562 189 q 663 208 614 189 q 752 262 712 227 q 816 355 792 297 q 840 485 840 413 q 817 621 840 562 q 754 714 793 680 q 666 766 714 749 q 566 783 618 783 l 399 783 l 399 566 l 624 566 l 624 416 l 399 416 l 399 189 z "},"đ":{"ha":915,"x_min":41,"x_max":821,"o":"m 41 342 q 80 522 41 440 q 192 652 118 603 q 361 701 265 701 q 551 631 475 701 l 551 772 l 379 772 l 379 913 l 551 913 l 551 1007 l 746 1007 l 746 913 l 821 913 l 821 772 l 746 772 l 746 0 l 551 0 l 551 52 q 361 -21 467 -21 q 192 28 265 -21 q 80 160 118 78 q 41 342 41 242 m 243 342 q 289 211 243 259 q 407 163 334 163 q 551 236 492 163 l 551 446 q 407 519 492 519 q 289 471 335 519 q 243 342 243 422 z "},"Ē":{"ha":802,"x_min":97,"x_max":747,"o":"m 97 0 l 97 972 l 747 972 l 747 789 l 298 789 l 298 579 l 704 579 l 704 396 l 298 396 l 298 189 l 747 189 l 747 0 l 97 0 m 257 1136 l 257 1276 l 654 1276 l 654 1136 l 257 1136 z "},"ē":{"ha":769,"x_min":41,"x_max":728,"o":"m 41 345 q 88 531 41 449 q 214 657 134 613 q 390 701 293 701 q 638 602 548 701 q 728 342 728 503 q 725 285 728 307 l 244 285 q 299 179 247 218 q 419 140 351 140 q 677 224 551 140 l 677 56 q 557 0 622 20 q 399 -21 492 -21 q 219 21 299 -21 q 90 146 139 62 q 41 345 41 231 m 197 831 l 197 971 l 595 971 l 595 831 l 197 831 m 249 415 l 532 415 q 492 504 528 467 q 390 541 456 541 q 291 503 330 541 q 249 415 252 465 z "},"Ĕ":{"ha":802,"x_min":97,"x_max":747,"o":"m 97 0 l 97 972 l 747 972 l 747 789 l 298 789 l 298 579 l 704 579 l 704 396 l 298 396 l 298 189 l 747 189 l 747 0 l 97 0 m 243 1291 l 366 1291 q 390 1233 367 1255 q 453 1210 413 1210 q 515 1233 492 1210 q 539 1291 538 1255 l 663 1291 q 607 1139 661 1193 q 453 1084 553 1084 q 299 1139 355 1084 q 243 1291 244 1194 z "},"ĕ":{"ha":769,"x_min":41,"x_max":728,"o":"m 41 345 q 88 531 41 449 q 214 657 134 613 q 390 701 293 701 q 638 602 548 701 q 728 342 728 503 q 725 285 728 307 l 244 285 q 299 179 247 218 q 419 140 351 140 q 677 224 551 140 l 677 56 q 557 0 622 20 q 399 -21 492 -21 q 219 21 299 -21 q 90 146 139 62 q 41 345 41 231 m 182 985 l 304 985 q 329 927 306 949 q 392 904 352 904 q 454 927 431 904 q 478 985 477 949 l 602 985 q 546 833 600 887 q 392 779 492 779 q 238 833 294 779 q 182 985 183 888 m 249 415 l 532 415 q 492 504 528 467 q 390 541 456 541 q 291 503 330 541 q 249 415 252 465 z "},"Ė":{"ha":802,"x_min":97,"x_max":747,"o":"m 97 0 l 97 972 l 747 972 l 747 789 l 298 789 l 298 579 l 704 579 l 704 396 l 298 396 l 298 189 l 747 189 l 747 0 l 97 0 m 330 1239 q 365 1325 330 1292 q 452 1358 400 1358 q 540 1325 505 1358 q 575 1239 575 1293 q 540 1153 575 1187 q 452 1120 505 1120 q 365 1153 400 1120 q 330 1239 330 1187 z "},"ė":{"ha":769,"x_min":41,"x_max":728,"o":"m 41 345 q 88 531 41 449 q 214 657 134 613 q 390 701 293 701 q 638 602 548 701 q 728 342 728 503 q 725 285 728 307 l 244 285 q 299 179 247 218 q 419 140 351 140 q 677 224 551 140 l 677 56 q 557 0 622 20 q 399 -21 492 -21 q 219 21 299 -21 q 90 146 139 62 q 41 345 41 231 m 249 415 l 532 415 q 492 504 528 467 q 390 541 456 541 q 291 503 330 541 q 249 415 252 465 m 271 933 q 306 1019 271 986 q 392 1053 340 1053 q 480 1020 446 1053 q 515 933 515 987 q 480 847 515 881 q 392 814 446 814 q 306 847 340 814 q 271 933 271 881 z "},"Ę":{"ha":802,"x_min":97,"x_max":747,"o":"m 97 0 l 97 972 l 747 972 l 747 789 l 298 789 l 298 579 l 704 579 l 704 396 l 298 396 l 298 189 l 747 189 l 747 0 l 746 0 q 660 -57 699 -21 q 621 -131 621 -94 q 642 -172 621 -159 q 693 -184 663 -184 q 746 -175 721 -184 l 746 -298 q 657 -313 707 -313 q 569 -298 609 -313 q 501 -251 528 -284 q 473 -172 473 -218 q 583 0 473 -70 l 97 0 z "},"ę":{"ha":769,"x_min":41,"x_max":728,"o":"m 41 345 q 88 531 41 449 q 214 657 134 613 q 390 701 293 701 q 638 602 548 701 q 728 342 728 503 q 725 285 728 307 l 244 285 q 299 179 247 218 q 419 140 351 140 q 677 224 551 140 l 677 56 q 558 0 614 16 l 559 0 q 474 -57 513 -21 q 435 -131 435 -94 q 456 -172 435 -159 q 507 -184 477 -184 q 559 -175 534 -184 l 559 -298 q 471 -313 521 -313 q 382 -298 422 -313 q 315 -251 342 -284 q 288 -172 288 -218 q 370 -20 288 -85 q 242 12 301 -15 q 138 83 182 38 q 67 196 93 128 q 41 345 41 263 m 249 415 l 532 415 q 492 504 528 467 q 390 541 456 541 q 291 503 330 541 q 249 415 252 465 z "},"Ě":{"ha":802,"x_min":97,"x_max":747,"o":"m 97 0 l 97 972 l 747 972 l 747 789 l 298 789 l 298 579 l 704 579 l 704 396 l 298 396 l 298 189 l 747 189 l 747 0 l 97 0 m 233 1291 l 372 1291 l 460 1198 l 549 1291 l 688 1291 l 553 1090 l 368 1090 l 233 1291 z "},"ě":{"ha":769,"x_min":41,"x_max":728,"o":"m 41 345 q 88 531 41 449 q 214 657 134 613 q 390 701 293 701 q 638 602 548 701 q 728 342 728 503 q 725 285 728 307 l 244 285 q 299 179 247 218 q 419 140 351 140 q 677 224 551 140 l 677 56 q 557 0 622 20 q 399 -21 492 -21 q 219 21 299 -21 q 90 146 139 62 q 41 345 41 231 m 174 985 l 313 985 l 400 893 l 489 985 l 628 985 l 493 785 l 309 785 l 174 985 m 249 415 l 532 415 q 492 504 528 467 q 390 541 456 541 q 291 503 330 541 q 249 415 252 465 z "},"Ĝ":{"ha":998,"x_min":49,"x_max":888,"o":"m 49 486 q 77 668 49 585 q 153 810 104 751 q 266 911 201 869 q 405 973 330 953 q 558 993 479 993 q 888 908 728 993 l 888 686 q 733 764 807 738 q 576 790 659 790 q 355 709 441 790 q 269 486 269 628 q 354 256 269 335 q 576 178 439 178 q 696 197 633 178 l 696 343 l 452 343 l 452 522 l 888 522 l 888 62 q 558 -21 735 -21 q 368 12 458 -21 q 205 106 277 44 q 91 266 134 168 q 49 486 49 364 m 325 1090 l 460 1291 l 644 1291 l 779 1090 l 640 1090 l 551 1182 l 464 1090 l 325 1090 z "},"ĝ":{"ha":801,"x_min":41,"x_max":736,"o":"m 41 366 q 128 608 41 515 q 353 701 215 701 q 542 631 473 701 l 542 679 l 736 679 l 736 21 q 649 -214 736 -128 q 385 -300 562 -300 q 225 -276 304 -300 q 97 -220 147 -252 l 97 -28 q 237 -98 163 -74 q 375 -122 312 -122 q 501 -87 460 -122 q 542 21 542 -52 l 542 96 q 459 44 508 64 q 353 24 410 24 q 128 119 215 24 q 41 366 41 214 m 183 785 l 318 985 l 503 985 l 637 785 l 498 785 l 410 876 l 322 785 l 183 785 m 243 366 q 284 243 243 288 q 392 197 325 197 q 474 217 435 197 q 542 271 514 237 l 542 456 q 475 508 515 488 q 392 528 435 528 q 284 483 326 528 q 243 366 243 438 z "},"Ğ":{"ha":998,"x_min":49,"x_max":888,"o":"m 49 486 q 77 668 49 585 q 153 810 104 751 q 266 911 201 869 q 405 973 330 953 q 558 993 479 993 q 888 908 728 993 l 888 686 q 733 764 807 738 q 576 790 659 790 q 355 709 441 790 q 269 486 269 628 q 354 256 269 335 q 576 178 439 178 q 696 197 633 178 l 696 343 l 452 343 l 452 522 l 888 522 l 888 62 q 558 -21 735 -21 q 368 12 458 -21 q 205 106 277 44 q 91 266 134 168 q 49 486 49 364 m 343 1291 l 465 1291 q 490 1233 467 1255 q 553 1210 513 1210 q 615 1233 592 1210 q 639 1291 637 1255 l 762 1291 q 707 1139 761 1193 q 553 1084 653 1084 q 400 1139 455 1084 q 343 1291 345 1194 z "},"ğ":{"ha":801,"x_min":41,"x_max":736,"o":"m 41 366 q 128 608 41 515 q 353 701 215 701 q 542 631 473 701 l 542 679 l 736 679 l 736 21 q 649 -214 736 -128 q 385 -300 562 -300 q 225 -276 304 -300 q 97 -220 147 -252 l 97 -28 q 237 -98 163 -74 q 375 -122 312 -122 q 501 -87 460 -122 q 542 21 542 -52 l 542 96 q 459 44 508 64 q 353 24 410 24 q 128 119 215 24 q 41 366 41 214 m 201 985 l 323 985 q 348 927 325 949 q 411 904 371 904 q 473 927 450 904 q 497 985 496 949 l 621 985 q 565 833 619 887 q 411 779 511 779 q 258 833 313 779 q 201 985 203 888 m 243 366 q 284 243 243 288 q 392 197 325 197 q 474 217 435 197 q 542 271 514 237 l 542 456 q 475 508 515 488 q 392 528 435 528 q 284 483 326 528 q 243 366 243 438 z "},"Ġ":{"ha":998,"x_min":49,"x_max":888,"o":"m 49 486 q 77 668 49 585 q 153 810 104 751 q 266 911 201 869 q 405 973 330 953 q 558 993 479 993 q 888 908 728 993 l 888 686 q 733 764 807 738 q 576 790 659 790 q 355 709 441 790 q 269 486 269 628 q 354 256 269 335 q 576 178 439 178 q 696 197 633 178 l 696 343 l 452 343 l 452 522 l 888 522 l 888 62 q 558 -21 735 -21 q 368 12 458 -21 q 205 106 277 44 q 91 266 134 168 q 49 486 49 364 m 431 1239 q 465 1325 431 1292 q 551 1358 500 1358 q 640 1325 605 1358 q 675 1239 675 1293 q 640 1153 675 1187 q 551 1120 605 1120 q 465 1153 500 1120 q 431 1239 431 1187 z "},"ġ":{"ha":801,"x_min":41,"x_max":736,"o":"m 41 366 q 128 608 41 515 q 353 701 215 701 q 542 631 473 701 l 542 679 l 736 679 l 736 21 q 649 -214 736 -128 q 385 -300 562 -300 q 225 -276 304 -300 q 97 -220 147 -252 l 97 -28 q 237 -98 163 -74 q 375 -122 312 -122 q 501 -87 460 -122 q 542 21 542 -52 l 542 96 q 459 44 508 64 q 353 24 410 24 q 128 119 215 24 q 41 366 41 214 m 243 366 q 284 243 243 288 q 392 197 325 197 q 474 217 435 197 q 542 271 514 237 l 542 456 q 475 508 515 488 q 392 528 435 528 q 284 483 326 528 q 243 366 243 438 m 289 933 q 323 1019 289 986 q 410 1053 358 1053 q 498 1020 463 1053 q 533 933 533 987 q 498 847 533 881 q 410 814 463 814 q 323 847 358 814 q 289 933 289 881 z "},"Ģ":{"ha":998,"x_min":49,"x_max":888,"o":"m 49 486 q 77 668 49 585 q 153 810 104 751 q 266 911 201 869 q 405 973 330 953 q 558 993 479 993 q 888 908 728 993 l 888 686 q 733 764 807 738 q 576 790 659 790 q 355 709 441 790 q 269 486 269 628 q 354 256 269 335 q 576 178 439 178 q 696 197 633 178 l 696 343 l 452 343 l 452 522 l 888 522 l 888 62 q 558 -21 735 -21 q 368 12 458 -21 q 205 106 277 44 q 91 266 134 168 q 49 486 49 364 m 439 -321 l 463 -65 l 648 -65 l 571 -321 l 439 -321 z "},"ģ":{"ha":801,"x_min":41,"x_max":736,"o":"m 41 366 q 128 608 41 515 q 353 701 215 701 q 542 631 473 701 l 542 679 l 736 679 l 736 21 q 649 -214 736 -128 q 385 -300 562 -300 q 225 -276 304 -300 q 97 -220 147 -252 l 97 -28 q 237 -98 163 -74 q 375 -122 312 -122 q 501 -87 460 -122 q 542 21 542 -52 l 542 96 q 459 44 508 64 q 353 24 410 24 q 128 119 215 24 q 41 366 41 214 m 243 366 q 284 243 243 288 q 392 197 325 197 q 474 217 435 197 q 542 271 514 237 l 542 456 q 475 508 515 488 q 392 528 435 528 q 284 483 326 528 q 243 366 243 438 m 306 766 l 383 1023 l 515 1023 l 492 766 l 306 766 z "},"Ĥ":{"ha":1023,"x_min":97,"x_max":926,"o":"m 97 0 l 97 972 l 302 972 l 302 587 l 721 587 l 721 972 l 926 972 l 926 0 l 721 0 l 721 392 l 302 392 l 302 0 l 97 0 m 286 1090 l 421 1291 l 606 1291 l 741 1090 l 602 1090 l 513 1182 l 425 1090 l 286 1090 z "},"ĥ":{"ha":789,"x_min":-46,"x_max":720,"o":"m -46 1125 l 89 1325 l 273 1325 l 408 1125 l 269 1125 l 180 1217 l 93 1125 l -46 1125 m 83 0 l 83 1007 l 278 1007 l 278 628 q 468 701 354 701 q 561 685 517 701 q 641 638 606 669 q 698 559 677 608 q 720 453 720 511 l 720 0 l 525 0 l 525 404 q 492 491 525 458 q 408 524 458 524 q 278 453 331 524 l 278 0 l 83 0 z "},"Ħ":{"ha":1152,"x_min":97,"x_max":1055,"o":"m 97 700 l 97 844 l 167 844 l 167 972 l 372 972 l 372 844 l 790 844 l 790 972 l 996 972 l 996 844 l 1055 844 l 1055 700 l 996 700 l 996 0 l 790 0 l 790 392 l 372 392 l 372 0 l 167 0 l 167 700 l 97 700 m 372 587 l 790 587 l 790 700 l 372 700 l 372 587 z "},"ħ":{"ha":789,"x_min":0,"x_max":720,"o":"m 0 772 l 0 913 l 83 913 l 83 1007 l 278 1007 l 278 913 l 450 913 l 450 772 l 278 772 l 278 628 q 468 701 354 701 q 561 685 517 701 q 641 638 606 669 q 698 559 677 608 q 720 453 720 511 l 720 0 l 525 0 l 525 404 q 492 491 525 458 q 408 524 458 524 q 278 453 331 524 l 278 0 l 83 0 l 83 772 l 0 772 z "},"Ĩ":{"ha":404,"x_min":-16,"x_max":440,"o":"m -16 1117 q 22 1261 -16 1214 q 126 1308 60 1308 q 215 1282 161 1308 l 241 1268 q 294 1251 272 1251 q 332 1305 332 1251 l 440 1305 q 401 1167 440 1220 q 298 1114 362 1114 q 214 1139 260 1114 l 187 1153 q 136 1171 151 1171 q 105 1156 117 1171 q 93 1117 93 1142 l -16 1117 m 97 0 l 97 972 l 307 972 l 307 0 l 97 0 z "},"ĩ":{"ha":353,"x_min":-41,"x_max":414,"o":"m -41 811 q -4 956 -41 909 q 100 1003 34 1003 q 189 977 135 1003 l 215 962 q 268 946 244 946 q 306 1000 306 946 l 414 1000 q 375 862 414 915 q 272 808 336 808 q 187 833 233 808 l 161 847 q 110 865 123 865 q 78 851 90 865 q 66 811 66 836 l -41 811 m 79 0 l 79 679 l 273 679 l 273 0 l 79 0 z "},"Ī":{"ha":404,"x_min":12,"x_max":410,"o":"m 12 1136 l 12 1276 l 410 1276 l 410 1136 l 12 1136 m 97 0 l 97 972 l 307 972 l 307 0 l 97 0 z "},"ī":{"ha":353,"x_min":-14,"x_max":383,"o":"m -14 831 l -14 971 l 383 971 l 383 831 l -14 831 m 79 0 l 79 679 l 273 679 l 273 0 l 79 0 z "},"Ĭ":{"ha":404,"x_min":-1,"x_max":418,"o":"m -1 1291 l 121 1291 q 145 1233 122 1255 q 208 1210 168 1210 q 270 1233 248 1210 q 294 1291 293 1255 l 418 1291 q 362 1139 416 1193 q 208 1084 309 1084 q 55 1139 111 1084 q -1 1291 0 1194 m 97 0 l 97 972 l 307 972 l 307 0 l 97 0 z "},"ĭ":{"ha":353,"x_min":-29,"x_max":390,"o":"m -29 985 l 93 985 q 117 927 94 949 q 180 904 140 904 q 242 927 220 904 q 267 985 265 949 l 390 985 q 335 833 389 887 q 180 779 281 779 q 27 833 82 779 q -29 985 -28 888 m 79 0 l 79 679 l 273 679 l 273 0 l 79 0 z "},"Į":{"ha":404,"x_min":35,"x_max":307,"o":"m 35 -172 q 144 0 35 -70 l 97 0 l 97 972 l 307 972 l 307 0 q 221 -57 260 -21 q 182 -131 182 -94 q 203 -172 182 -159 q 254 -184 224 -184 q 307 -175 282 -184 l 307 -298 q 218 -313 269 -313 q 130 -298 170 -313 q 62 -251 90 -284 q 35 -172 35 -218 z "},"į":{"ha":353,"x_min":1,"x_max":304,"o":"m 1 -172 q 111 0 1 -70 l 79 0 l 79 679 l 273 679 l 273 0 q 188 -57 227 -21 q 149 -131 149 -94 q 170 -172 149 -159 q 221 -184 191 -184 q 273 -175 248 -184 l 273 -298 q 184 -313 235 -313 q 96 -298 136 -313 q 28 -251 56 -284 q 1 -172 1 -218 m 60 933 q 94 1019 60 986 q 180 1053 129 1053 q 269 1019 234 1053 q 304 933 304 986 q 269 847 304 881 q 180 814 234 814 q 94 847 129 814 q 60 933 60 881 z "},"İ":{"ha":404,"x_min":86,"x_max":330,"o":"m 86 1239 q 121 1325 86 1292 q 207 1358 155 1358 q 295 1325 260 1358 q 330 1239 330 1293 q 295 1153 330 1187 q 207 1120 260 1120 q 121 1153 155 1120 q 86 1239 86 1187 m 97 0 l 97 972 l 307 972 l 307 0 l 97 0 z "},"ı":{"ha":353,"x_min":79,"x_max":273,"o":"m 79 0 l 79 679 l 273 679 l 273 0 l 79 0 z "},"Ĳ":{"ha":1062,"x_min":97,"x_max":965,"o":"m 97 0 l 97 972 l 307 972 l 307 0 l 97 0 m 446 11 l 446 210 q 608 178 517 178 q 722 224 684 178 q 760 358 760 271 l 760 972 l 965 972 l 965 330 q 876 65 965 151 q 628 -21 786 -21 q 530 -12 583 -21 q 446 11 477 -3 z "},"ĳ":{"ha":722,"x_min":53,"x_max":665,"o":"m 53 933 q 87 1019 53 986 q 175 1053 122 1053 q 262 1019 228 1053 q 297 933 297 986 q 262 847 297 881 q 175 814 227 814 q 88 847 123 814 q 53 933 53 881 m 79 0 l 79 679 l 273 679 l 273 0 l 79 0 m 307 -121 q 353 -125 326 -125 q 447 -33 447 -125 l 447 679 l 642 679 l 642 -72 q 576 -239 642 -179 q 412 -300 511 -300 q 307 -288 358 -300 l 307 -121 m 421 933 q 456 1019 421 986 q 542 1053 490 1053 q 630 1020 595 1053 q 665 933 665 987 q 630 847 665 881 q 542 814 595 814 q 456 847 490 814 q 421 933 421 881 z "},"Ĵ":{"ha":668,"x_min":52,"x_max":689,"o":"m 52 11 l 52 210 q 214 178 123 178 q 327 224 289 178 q 366 358 366 271 l 366 972 l 571 972 l 571 330 q 481 65 571 151 q 233 -21 391 -21 q 136 -12 188 -21 q 52 11 83 -3 m 235 1090 l 370 1291 l 554 1291 l 689 1090 l 550 1090 l 461 1182 l 374 1090 l 235 1090 z "},"ĵ":{"ha":370,"x_min":-46,"x_max":421,"o":"m -46 -121 q 0 -125 -28 -125 q 94 -33 94 -125 l 94 679 l 289 679 l 289 -72 q 223 -239 289 -179 q 60 -300 158 -300 q -46 -288 5 -300 l -46 -121 m -33 785 l 102 985 l 286 985 l 421 785 l 282 785 l 193 876 l 106 785 l -33 785 z "},"Ķ":{"ha":932,"x_min":97,"x_max":920,"o":"m 97 0 l 97 972 l 302 972 l 302 579 l 652 972 l 914 972 l 554 574 l 920 0 l 675 0 l 412 415 l 302 294 l 302 0 l 97 0 m 387 -321 l 411 -65 l 597 -65 l 519 -321 l 387 -321 z "},"ķ":{"ha":787,"x_min":79,"x_max":783,"o":"m 79 0 l 79 1007 l 273 1007 l 273 433 l 518 679 l 768 679 l 513 421 l 783 0 l 551 0 l 372 279 l 273 180 l 273 0 l 79 0 m 288 -321 l 311 -65 l 497 -65 l 419 -321 l 288 -321 z "},"ĸ":{"ha":787,"x_min":79,"x_max":783,"o":"m 79 0 l 79 679 l 273 679 l 273 433 l 518 679 l 768 679 l 513 421 l 783 0 l 551 0 l 372 279 l 273 180 l 273 0 l 79 0 z "},"Ĺ":{"ha":802,"x_min":97,"x_max":753,"o":"m 97 0 l 97 972 l 302 972 l 302 199 l 753 199 l 753 0 l 97 0 m 110 1080 l 203 1291 l 408 1291 l 252 1080 l 110 1080 z "},"ĺ":{"ha":351,"x_min":79,"x_max":386,"o":"m 79 0 l 79 1007 l 273 1007 l 273 0 l 79 0 m 87 1116 l 180 1325 l 386 1325 l 229 1116 l 87 1116 z "},"Ļ":{"ha":802,"x_min":97,"x_max":753,"o":"m 97 0 l 97 972 l 302 972 l 302 199 l 753 199 l 753 0 l 97 0 m 332 -321 l 355 -65 l 542 -65 l 464 -321 l 332 -321 z "},"ļ":{"ha":351,"x_min":61,"x_max":273,"o":"m 61 -321 l 85 -65 l 271 -65 l 193 -321 l 61 -321 m 79 0 l 79 1007 l 273 1007 l 273 0 l 79 0 z "},"Ľ":{"ha":802,"x_min":97,"x_max":753,"o":"m 97 0 l 97 972 l 302 972 l 302 199 l 753 199 l 753 0 l 97 0 m 471 707 l 494 972 l 681 972 l 603 707 l 471 707 z "},"ľ":{"ha":467,"x_min":79,"x_max":550,"o":"m 79 0 l 79 1007 l 273 1007 l 273 0 l 79 0 m 339 742 l 363 1007 l 550 1007 l 472 742 l 339 742 z "},"Ŀ":{"ha":755,"x_min":97,"x_max":753,"o":"m 97 0 l 97 972 l 302 972 l 302 199 l 753 199 l 753 0 l 97 0 m 425 564 q 460 652 425 616 q 549 688 496 688 q 638 652 602 688 q 673 564 673 616 q 638 477 673 512 q 549 441 602 441 q 461 477 496 441 q 425 564 425 513 z "},"ŀ":{"ha":654,"x_min":79,"x_max":599,"o":"m 79 0 l 79 1007 l 273 1007 l 273 0 l 79 0 m 350 503 q 386 590 350 554 q 473 625 421 625 q 563 590 527 625 q 599 503 599 554 q 563 416 599 451 q 473 380 527 380 q 385 416 420 380 q 350 503 350 452 z "},"Ł":{"ha":904,"x_min":97,"x_max":852,"o":"m 97 313 l 97 468 l 197 513 l 197 972 l 403 972 l 403 603 l 692 729 l 692 576 l 403 449 l 403 199 l 852 199 l 852 0 l 197 0 l 197 357 l 97 313 z "},"ł":{"ha":570,"x_min":46,"x_max":505,"o":"m 46 292 l 46 450 l 163 518 l 163 1007 l 357 1007 l 357 632 l 505 720 l 505 564 l 357 476 l 357 0 l 163 0 l 163 361 l 46 292 z "},"Ń":{"ha":1053,"x_min":97,"x_max":956,"o":"m 97 0 l 97 972 l 325 972 l 757 347 l 757 972 l 956 972 l 956 0 l 755 0 l 296 686 l 296 0 l 97 0 m 458 1080 l 551 1291 l 757 1291 l 600 1080 l 458 1080 z "},"ń":{"ha":783,"x_min":83,"x_max":714,"o":"m 83 0 l 83 679 l 275 679 l 275 625 q 465 701 351 701 q 558 685 513 701 q 637 638 602 669 q 693 559 673 608 q 714 453 714 511 l 714 0 l 519 0 l 519 404 q 487 491 519 458 q 406 524 455 524 q 278 453 331 524 l 278 0 l 83 0 m 329 775 l 422 985 l 628 985 l 471 775 l 329 775 z "},"Ņ":{"ha":1053,"x_min":97,"x_max":956,"o":"m 97 0 l 97 972 l 325 972 l 757 347 l 757 972 l 956 972 l 956 0 l 755 0 l 296 686 l 296 0 l 97 0 m 415 -321 l 439 -65 l 625 -65 l 547 -321 l 415 -321 z "},"ņ":{"ha":783,"x_min":83,"x_max":714,"o":"m 83 0 l 83 679 l 275 679 l 275 625 q 465 701 351 701 q 558 685 513 701 q 637 638 602 669 q 693 559 673 608 q 714 453 714 511 l 714 0 l 519 0 l 519 404 q 487 491 519 458 q 406 524 455 524 q 278 453 331 524 l 278 0 l 83 0 m 292 -321 l 315 -65 l 501 -65 l 424 -321 l 292 -321 z "},"Ň":{"ha":1053,"x_min":97,"x_max":956,"o":"m 97 0 l 97 972 l 325 972 l 757 347 l 757 972 l 956 972 l 956 0 l 755 0 l 296 686 l 296 0 l 97 0 m 326 1291 l 465 1291 l 553 1198 l 642 1291 l 781 1291 l 646 1090 l 461 1090 l 326 1291 z "},"ň":{"ha":783,"x_min":83,"x_max":714,"o":"m 83 0 l 83 679 l 275 679 l 275 625 q 465 701 351 701 q 558 685 513 701 q 637 638 602 669 q 693 559 673 608 q 714 453 714 511 l 714 0 l 519 0 l 519 404 q 487 491 519 458 q 406 524 455 524 q 278 453 331 524 l 278 0 l 83 0 m 197 985 l 336 985 l 424 893 l 513 985 l 652 985 l 517 785 l 332 785 l 197 985 z "},"ŉ":{"ha":783,"x_min":-87,"x_max":714,"o":"m -87 730 q -44 889 -62 801 q -22 1042 -26 977 l 167 1042 q 117 874 158 972 q 43 730 76 776 l -87 730 m 83 0 l 83 679 l 275 679 l 275 625 q 465 701 351 701 q 558 685 513 701 q 637 638 602 669 q 693 559 673 608 q 714 453 714 511 l 714 0 l 519 0 l 519 404 q 487 491 519 458 q 406 524 455 524 q 278 453 331 524 l 278 0 l 83 0 z "},"Ŋ":{"ha":1053,"x_min":97,"x_max":956,"o":"m 97 0 l 97 972 l 325 972 l 757 349 l 757 972 l 956 972 l 956 47 q 866 -214 956 -130 q 618 -298 777 -298 q 520 -289 572 -298 q 436 -267 468 -280 l 436 -68 q 599 -100 507 -100 q 700 -69 661 -100 q 746 17 738 -38 l 296 686 l 296 0 l 97 0 z "},"ŋ":{"ha":783,"x_min":83,"x_max":714,"o":"m 83 0 l 83 679 l 275 679 l 275 625 q 465 701 351 701 q 558 685 513 701 q 637 638 602 669 q 693 559 673 608 q 714 453 714 511 l 714 -72 q 649 -239 714 -179 q 485 -300 583 -300 q 379 -288 434 -300 l 379 -121 q 425 -125 397 -125 q 497 -102 475 -125 q 519 -33 519 -80 l 519 404 q 487 491 519 458 q 406 524 455 524 q 278 453 331 524 l 278 0 l 83 0 z "},"Ō":{"ha":1118,"x_min":49,"x_max":1069,"o":"m 77 303 q 63 345 77 303 q 49 486 49 387 q 77 669 49 585 q 155 811 106 753 q 269 912 203 870 q 408 973 334 954 q 558 993 481 993 q 746 961 656 993 q 909 867 836 928 q 1026 708 982 806 q 1069 486 1069 609 q 1041 304 1069 388 q 963 161 1012 220 q 848 60 913 102 q 709 -1 783 18 q 558 -21 635 -21 q 408 -1 481 -21 q 269 60 334 18 q 155 161 203 102 q 77 303 106 220 m 269 486 q 352 266 269 349 q 558 183 435 183 q 765 266 683 183 q 847 486 847 348 q 765 706 847 623 q 558 789 682 789 q 353 706 436 789 q 269 486 269 623 m 364 1136 l 364 1276 l 761 1276 l 761 1136 l 364 1136 z "},"ō":{"ha":823,"x_min":41,"x_max":782,"o":"m 41 342 q 145 598 41 496 q 411 701 248 701 q 678 598 574 701 q 782 342 782 496 q 735 158 782 240 q 604 27 689 75 q 411 -21 519 -21 q 218 27 303 -21 q 87 158 134 75 q 41 342 41 240 m 215 831 l 215 971 l 612 971 l 612 831 l 215 831 m 243 342 q 291 211 243 260 q 411 163 339 163 q 532 211 484 163 q 581 342 581 260 q 532 471 581 422 q 411 519 484 519 q 291 471 339 519 q 243 342 243 422 z "},"Ŏ":{"ha":1118,"x_min":49,"x_max":1069,"o":"m 77 303 q 63 345 77 303 q 49 486 49 387 q 77 669 49 585 q 155 811 106 753 q 269 912 203 870 q 408 973 334 954 q 558 993 481 993 q 746 961 656 993 q 909 867 836 928 q 1026 708 982 806 q 1069 486 1069 609 q 1041 304 1069 388 q 963 161 1012 220 q 848 60 913 102 q 709 -1 783 18 q 558 -21 635 -21 q 408 -1 481 -21 q 269 60 334 18 q 155 161 203 102 q 77 303 106 220 m 269 486 q 352 266 269 349 q 558 183 435 183 q 765 266 683 183 q 847 486 847 348 q 765 706 847 623 q 558 789 682 789 q 353 706 436 789 q 269 486 269 623 m 350 1291 l 472 1291 q 496 1233 473 1255 q 559 1210 519 1210 q 622 1233 599 1210 q 646 1291 644 1255 l 770 1291 q 714 1139 768 1193 q 559 1084 660 1084 q 407 1139 462 1084 q 350 1291 351 1194 z "},"ŏ":{"ha":823,"x_min":41,"x_max":782,"o":"m 41 342 q 145 598 41 496 q 411 701 248 701 q 678 598 574 701 q 782 342 782 496 q 735 158 782 240 q 604 27 689 75 q 411 -21 519 -21 q 218 27 303 -21 q 87 158 134 75 q 41 342 41 240 m 201 985 l 323 985 q 348 927 325 949 q 411 904 371 904 q 473 927 450 904 q 497 985 496 949 l 621 985 q 565 833 619 887 q 411 779 511 779 q 258 833 313 779 q 201 985 203 888 m 243 342 q 291 211 243 260 q 411 163 339 163 q 532 211 484 163 q 581 342 581 260 q 532 471 581 422 q 411 519 484 519 q 291 471 339 519 q 243 342 243 422 z "},"Ő":{"ha":1118,"x_min":49,"x_max":1069,"o":"m 77 303 q 63 345 77 303 q 49 486 49 387 q 77 669 49 585 q 155 811 106 753 q 269 912 203 870 q 408 973 334 954 q 558 993 481 993 q 746 961 656 993 q 909 867 836 928 q 1026 708 982 806 q 1069 486 1069 609 q 1041 304 1069 388 q 963 161 1012 220 q 848 60 913 102 q 709 -1 783 18 q 558 -21 635 -21 q 408 -1 481 -21 q 269 60 334 18 q 155 161 203 102 q 77 303 106 220 m 269 486 q 352 266 269 349 q 558 183 435 183 q 765 266 683 183 q 847 486 847 348 q 765 706 847 623 q 558 789 682 789 q 353 706 436 789 q 269 486 269 623 m 374 1080 l 427 1291 l 616 1291 l 500 1080 l 374 1080 m 600 1080 l 659 1291 l 848 1291 l 728 1080 l 600 1080 z "},"ő":{"ha":823,"x_min":41,"x_max":782,"o":"m 41 342 q 145 598 41 496 q 411 701 248 701 q 678 598 574 701 q 782 342 782 496 q 735 158 782 240 q 604 27 689 75 q 411 -21 519 -21 q 218 27 303 -21 q 87 158 134 75 q 41 342 41 240 m 225 775 l 278 985 l 468 985 l 351 775 l 225 775 m 243 342 q 291 211 243 260 q 411 163 339 163 q 532 211 484 163 q 581 342 581 260 q 532 471 581 422 q 411 519 484 519 q 291 471 339 519 q 243 342 243 422 m 452 775 l 510 985 l 700 985 l 579 775 l 452 775 z "},"Œ":{"ha":1491,"x_min":49,"x_max":1436,"o":"m 77 303 q 63 345 77 303 q 49 486 49 387 q 77 669 49 585 q 155 811 106 753 q 269 912 203 870 q 408 973 334 954 q 558 993 481 993 q 713 972 635 993 l 1436 972 l 1436 789 l 977 789 q 1061 579 1046 696 l 1393 579 l 1393 396 l 1061 396 q 979 189 1048 281 l 1436 189 l 1436 0 l 713 0 q 558 -21 633 -21 q 408 -1 481 -21 q 269 60 334 18 q 155 161 203 102 q 77 303 106 220 m 269 486 q 352 266 269 349 q 558 183 435 183 q 765 266 683 183 q 847 486 847 348 q 765 706 847 623 q 558 789 682 789 q 353 706 436 789 q 269 486 269 623 z "},"œ":{"ha":1308,"x_min":41,"x_max":1267,"o":"m 41 342 q 145 598 41 496 q 411 701 248 701 q 676 600 573 701 q 787 675 723 649 q 922 701 850 701 q 1174 602 1082 701 q 1267 342 1267 502 q 1264 285 1267 307 l 782 285 q 838 179 786 218 q 957 140 889 140 q 1087 160 1026 140 q 1217 224 1149 180 l 1217 56 q 937 -21 1097 -21 q 793 6 861 -21 q 677 83 726 33 q 411 -21 573 -21 q 218 27 303 -21 q 87 158 134 75 q 41 342 41 240 m 243 342 q 291 211 243 260 q 411 163 339 163 q 532 211 484 163 q 581 342 581 260 q 532 471 581 422 q 411 519 484 519 q 291 471 339 519 q 243 342 243 422 m 786 415 l 1071 415 q 1030 504 1067 467 q 928 541 994 541 q 829 503 869 541 q 786 415 790 465 z "},"Ŕ":{"ha":879,"x_min":97,"x_max":832,"o":"m 97 0 l 97 972 l 494 972 q 736 882 644 972 q 829 654 829 792 q 779 473 829 551 q 640 359 729 395 l 832 0 l 607 0 l 444 332 l 302 332 l 302 0 l 97 0 m 302 515 l 457 515 q 568 552 527 515 q 610 654 610 588 q 568 757 610 722 q 457 793 526 793 l 302 793 l 302 515 m 334 1080 l 427 1291 l 632 1291 l 475 1080 l 334 1080 z "},"ŕ":{"ha":548,"x_min":83,"x_max":514,"o":"m 83 0 l 83 679 l 275 679 l 275 581 q 347 670 300 638 q 457 701 393 701 q 507 697 483 701 l 507 500 q 436 507 477 507 q 336 475 380 507 q 278 393 291 442 l 278 0 l 83 0 m 215 775 l 309 985 l 514 985 l 357 775 l 215 775 z "},"Ŗ":{"ha":879,"x_min":97,"x_max":832,"o":"m 97 0 l 97 972 l 494 972 q 736 882 644 972 q 829 654 829 792 q 779 473 829 551 q 640 359 729 395 l 832 0 l 607 0 l 444 332 l 302 332 l 302 0 l 97 0 m 302 515 l 457 515 q 568 552 527 515 q 610 654 610 588 q 568 757 610 722 q 457 793 526 793 l 302 793 l 302 515 m 340 -321 l 364 -65 l 550 -65 l 472 -321 l 340 -321 z "},"ŗ":{"ha":548,"x_min":83,"x_max":507,"o":"m 83 0 l 83 679 l 275 679 l 275 581 q 347 670 300 638 q 457 701 393 701 q 507 697 483 701 l 507 500 q 436 507 477 507 q 336 475 380 507 q 278 393 291 442 l 278 0 l 83 0 m 144 -321 l 168 -65 l 354 -65 l 277 -321 l 144 -321 z "},"Ř":{"ha":879,"x_min":97,"x_max":832,"o":"m 97 0 l 97 972 l 494 972 q 736 882 644 972 q 829 654 829 792 q 779 473 829 551 q 640 359 729 395 l 832 0 l 607 0 l 444 332 l 302 332 l 302 0 l 97 0 m 201 1291 l 340 1291 l 428 1198 l 517 1291 l 656 1291 l 521 1090 l 336 1090 l 201 1291 m 302 515 l 457 515 q 568 552 527 515 q 610 654 610 588 q 568 757 610 722 q 457 793 526 793 l 302 793 l 302 515 z "},"ř":{"ha":548,"x_min":83,"x_max":538,"o":"m 83 0 l 83 679 l 275 679 l 275 581 q 347 670 300 638 q 457 701 393 701 q 507 697 483 701 l 507 500 q 436 507 477 507 q 336 475 380 507 q 278 393 291 442 l 278 0 l 83 0 m 83 985 l 222 985 l 310 893 l 399 985 l 538 985 l 403 785 l 218 785 l 83 985 z "},"Ś":{"ha":836,"x_min":65,"x_max":781,"o":"m 65 689 q 163 908 65 823 q 436 993 261 993 q 721 933 587 993 l 721 728 q 429 802 560 802 q 321 774 360 802 q 282 701 282 746 q 304 643 282 667 q 367 610 326 618 l 521 576 q 781 283 781 519 q 686 65 781 151 q 428 -21 591 -21 q 72 64 235 -21 l 72 271 q 239 202 136 231 q 428 172 341 172 q 528 200 495 172 q 561 271 561 228 q 535 335 561 308 q 461 372 510 363 l 326 401 q 65 689 65 458 m 350 1080 l 443 1291 l 648 1291 l 492 1080 l 350 1080 z "},"ś":{"ha":637,"x_min":56,"x_max":589,"o":"m 56 479 q 129 638 56 576 q 335 701 202 701 q 557 656 456 701 l 557 479 q 334 532 443 532 q 268 517 290 532 q 245 479 245 503 q 307 431 245 444 l 382 415 q 538 345 487 395 q 589 207 589 294 q 510 42 589 104 q 293 -21 432 -21 q 57 26 180 -21 l 57 212 q 181 167 116 184 q 296 150 246 150 q 386 205 386 150 q 323 258 386 247 l 245 273 q 56 479 56 309 m 245 775 l 339 985 l 545 985 l 387 775 l 245 775 z "},"Ŝ":{"ha":836,"x_min":65,"x_max":781,"o":"m 65 689 q 163 908 65 823 q 436 993 261 993 q 721 933 587 993 l 721 728 q 429 802 560 802 q 321 774 360 802 q 282 701 282 746 q 304 643 282 667 q 367 610 326 618 l 521 576 q 781 283 781 519 q 686 65 781 151 q 428 -21 591 -21 q 72 64 235 -21 l 72 271 q 239 202 136 231 q 428 172 341 172 q 528 200 495 172 q 561 271 561 228 q 535 335 561 308 q 461 372 510 363 l 326 401 q 65 689 65 458 m 208 1090 l 343 1291 l 528 1291 l 663 1090 l 524 1090 l 435 1182 l 347 1090 l 208 1090 z "},"ŝ":{"ha":637,"x_min":56,"x_max":589,"o":"m 56 479 q 129 638 56 576 q 335 701 202 701 q 557 656 456 701 l 557 479 q 334 532 443 532 q 268 517 290 532 q 245 479 245 503 q 307 431 245 444 l 382 415 q 538 345 487 395 q 589 207 589 294 q 510 42 589 104 q 293 -21 432 -21 q 57 26 180 -21 l 57 212 q 181 167 116 184 q 296 150 246 150 q 386 205 386 150 q 323 258 386 247 l 245 273 q 56 479 56 309 m 104 785 l 239 985 l 424 985 l 558 785 l 419 785 l 330 876 l 243 785 l 104 785 z "},"Ş":{"ha":836,"x_min":65,"x_max":781,"o":"m 65 689 q 163 908 65 823 q 436 993 261 993 q 721 933 587 993 l 721 728 q 429 802 560 802 q 321 774 360 802 q 282 701 282 746 q 304 643 282 667 q 367 610 326 618 l 521 576 q 781 283 781 519 q 696 75 781 159 q 465 -20 612 -9 l 436 -56 q 469 -50 447 -50 q 551 -86 518 -50 q 585 -171 585 -121 q 537 -276 585 -239 q 412 -313 490 -313 q 273 -282 339 -313 l 273 -180 q 399 -214 334 -214 q 458 -171 458 -214 q 446 -141 458 -153 q 407 -129 433 -129 q 361 -136 380 -129 l 315 -82 l 349 -17 q 72 64 201 -2 l 72 271 q 239 202 136 231 q 428 172 341 172 q 528 200 495 172 q 561 271 561 228 q 535 335 561 308 q 461 372 510 363 l 326 401 q 65 689 65 458 z "},"ş":{"ha":637,"x_min":56,"x_max":589,"o":"m 56 479 q 129 638 56 576 q 335 701 202 701 q 557 656 456 701 l 557 479 q 334 532 443 532 q 268 517 290 532 q 245 479 245 503 q 307 431 245 444 l 382 415 q 538 345 487 395 q 589 207 589 294 q 532 60 589 120 q 371 -16 475 1 l 338 -56 q 372 -50 349 -50 q 454 -86 421 -50 q 488 -171 488 -121 q 440 -276 488 -239 q 314 -313 393 -313 q 175 -282 241 -313 l 175 -180 q 301 -214 235 -214 q 361 -171 361 -214 q 348 -141 361 -153 q 309 -129 335 -129 q 262 -136 282 -129 l 216 -82 l 250 -20 q 57 26 158 -12 l 57 212 q 181 167 116 184 q 296 150 246 150 q 386 205 386 150 q 323 258 386 247 l 245 273 q 56 479 56 309 z "},"Š":{"ha":836,"x_min":65,"x_max":781,"o":"m 65 689 q 163 908 65 823 q 436 993 261 993 q 721 933 587 993 l 721 728 q 429 802 560 802 q 321 774 360 802 q 282 701 282 746 q 304 643 282 667 q 367 610 326 618 l 521 576 q 781 283 781 519 q 686 65 781 151 q 428 -21 591 -21 q 72 64 235 -21 l 72 271 q 239 202 136 231 q 428 172 341 172 q 528 200 495 172 q 561 271 561 228 q 535 335 561 308 q 461 372 510 363 l 326 401 q 65 689 65 458 m 218 1291 l 357 1291 l 444 1198 l 533 1291 l 672 1291 l 538 1090 l 353 1090 l 218 1291 z "},"š":{"ha":637,"x_min":56,"x_max":589,"o":"m 56 479 q 129 638 56 576 q 335 701 202 701 q 557 656 456 701 l 557 479 q 334 532 443 532 q 268 517 290 532 q 245 479 245 503 q 307 431 245 444 l 382 415 q 538 345 487 395 q 589 207 589 294 q 510 42 589 104 q 293 -21 432 -21 q 57 26 180 -21 l 57 212 q 181 167 116 184 q 296 150 246 150 q 386 205 386 150 q 323 258 386 247 l 245 273 q 56 479 56 309 m 114 985 l 253 985 l 340 893 l 429 985 l 568 985 l 433 785 l 249 785 l 114 985 z "},"Ţ":{"ha":904,"x_min":37,"x_max":868,"o":"m 37 782 l 37 972 l 868 972 l 868 782 l 557 781 l 557 -1 l 509 -1 l 465 -56 q 498 -50 476 -50 q 581 -86 547 -50 q 614 -171 614 -121 q 566 -276 614 -239 q 441 -313 519 -313 q 302 -282 368 -313 l 302 -180 q 428 -214 363 -214 q 488 -171 488 -214 q 475 -141 488 -153 q 436 -129 462 -129 q 390 -136 410 -129 l 345 -82 l 386 0 l 347 0 l 347 782 l 37 782 z "},"ţ":{"ha":524,"x_min":18,"x_max":479,"o":"m 18 518 l 18 679 l 140 679 l 140 864 l 328 933 l 328 679 l 479 679 l 479 518 l 328 518 l 328 245 q 424 154 328 154 q 479 163 446 154 l 479 -5 q 363 -21 427 -21 l 353 -21 l 325 -56 q 359 -50 336 -50 q 441 -86 408 -50 q 473 -171 473 -121 q 426 -276 473 -239 q 301 -313 378 -313 q 163 -282 229 -313 l 163 -180 q 288 -214 223 -214 q 347 -171 347 -214 q 335 -141 347 -153 q 296 -129 322 -129 q 250 -136 270 -129 l 204 -82 l 248 1 q 134 200 134 53 l 134 518 l 18 518 z "},"Ť":{"ha":904,"x_min":37,"x_max":868,"o":"m 37 782 l 37 972 l 868 972 l 868 782 l 557 781 l 557 -1 l 347 0 l 347 782 l 37 782 m 235 1291 l 374 1291 l 461 1198 l 550 1291 l 689 1291 l 554 1090 l 370 1090 l 235 1291 z "},"ť":{"ha":524,"x_min":18,"x_max":611,"o":"m 18 518 l 18 679 l 140 679 l 140 864 l 328 933 l 328 679 l 479 679 l 479 518 l 328 518 l 328 245 q 424 154 328 154 q 479 163 446 154 l 479 -5 q 363 -21 427 -21 q 275 -8 315 -21 q 202 30 235 4 q 152 99 170 56 q 134 200 134 142 l 134 518 l 18 518 m 401 757 l 425 1022 l 611 1022 l 533 757 l 401 757 z "},"Ŧ":{"ha":904,"x_min":37,"x_max":868,"o":"m 37 782 l 37 972 l 868 972 l 868 782 l 557 781 l 557 554 l 771 554 l 771 392 l 557 392 l 557 -1 l 347 0 l 347 392 l 135 392 l 135 554 l 347 554 l 347 782 l 37 782 z "},"ŧ":{"ha":524,"x_min":18,"x_max":479,"o":"m 18 518 l 18 679 l 140 679 l 140 864 l 328 933 l 328 679 l 479 679 l 479 518 l 328 518 l 328 441 l 464 441 l 464 300 l 328 300 l 328 245 q 424 154 328 154 q 479 163 446 154 l 479 -5 q 363 -21 427 -21 q 275 -8 315 -21 q 202 30 235 4 q 152 99 170 56 q 134 200 134 142 l 134 300 l 22 300 l 22 441 l 134 441 l 134 518 l 18 518 z "},"Ũ":{"ha":948,"x_min":90,"x_max":859,"o":"m 90 374 l 90 972 l 296 972 l 296 375 q 342 231 296 285 q 475 178 389 178 q 607 231 562 178 q 653 375 653 285 l 653 972 l 859 972 l 859 374 q 758 84 859 190 q 475 -21 657 -21 q 191 84 292 -21 q 90 374 90 190 m 252 1117 q 290 1261 252 1214 q 393 1308 328 1308 q 482 1282 428 1308 l 509 1268 q 561 1251 539 1251 q 599 1305 599 1251 l 707 1305 q 668 1167 707 1220 q 566 1114 629 1114 q 481 1139 527 1114 l 454 1153 q 403 1171 418 1171 q 371 1156 383 1171 q 359 1117 359 1142 l 252 1117 z "},"ũ":{"ha":783,"x_min":77,"x_max":707,"o":"m 77 227 l 77 679 l 271 679 l 271 275 q 302 189 271 221 q 385 157 334 157 q 513 227 460 157 l 513 679 l 707 679 l 707 0 l 515 0 l 515 54 q 325 -22 436 -22 q 204 6 260 -22 q 113 92 149 34 q 77 227 77 150 m 165 811 q 203 956 165 909 q 307 1003 241 1003 q 396 977 342 1003 l 422 962 q 475 946 452 946 q 513 1000 513 946 l 621 1000 q 582 862 621 915 q 479 808 543 808 q 395 833 441 808 l 368 847 q 317 865 330 865 q 285 851 297 865 q 273 811 273 836 l 165 811 z "},"Ū":{"ha":948,"x_min":90,"x_max":859,"o":"m 90 374 l 90 972 l 296 972 l 296 375 q 342 231 296 285 q 475 178 389 178 q 607 231 562 178 q 653 375 653 285 l 653 972 l 859 972 l 859 374 q 758 84 859 190 q 475 -21 657 -21 q 191 84 292 -21 q 90 374 90 190 m 279 1136 l 279 1276 l 676 1276 l 676 1136 l 279 1136 z "},"ū":{"ha":783,"x_min":77,"x_max":707,"o":"m 77 227 l 77 679 l 271 679 l 271 275 q 302 189 271 221 q 385 157 334 157 q 513 227 460 157 l 513 679 l 707 679 l 707 0 l 515 0 l 515 54 q 325 -22 436 -22 q 204 6 260 -22 q 113 92 149 34 q 77 227 77 150 m 193 831 l 193 971 l 590 971 l 590 831 l 193 831 z "},"Ŭ":{"ha":948,"x_min":90,"x_max":859,"o":"m 90 374 l 90 972 l 296 972 l 296 375 q 342 231 296 285 q 475 178 389 178 q 607 231 562 178 q 653 375 653 285 l 653 972 l 859 972 l 859 374 q 758 84 859 190 q 475 -21 657 -21 q 191 84 292 -21 q 90 374 90 190 m 264 1291 l 386 1291 q 410 1233 387 1255 q 473 1210 433 1210 q 535 1233 513 1210 q 559 1291 558 1255 l 684 1291 q 628 1139 682 1193 q 473 1084 574 1084 q 320 1139 376 1084 q 264 1291 265 1194 z "},"ŭ":{"ha":783,"x_min":77,"x_max":707,"o":"m 77 227 l 77 679 l 271 679 l 271 275 q 302 189 271 221 q 385 157 334 157 q 513 227 460 157 l 513 679 l 707 679 l 707 0 l 515 0 l 515 54 q 325 -22 436 -22 q 204 6 260 -22 q 113 92 149 34 q 77 227 77 150 m 179 985 l 301 985 q 326 927 302 949 q 389 904 349 904 q 451 927 428 904 q 475 985 473 949 l 599 985 q 543 833 597 887 q 389 779 489 779 q 235 833 290 779 q 179 985 180 888 z "},"Ů":{"ha":948,"x_min":90,"x_max":859,"o":"m 90 374 l 90 972 l 296 972 l 296 375 q 342 231 296 285 q 475 178 389 178 q 607 231 562 178 q 653 375 653 285 l 653 972 l 859 972 l 859 374 q 758 84 859 190 q 475 -21 657 -21 q 191 84 292 -21 q 90 374 90 190 m 360 1105 q 336 1128 360 1105 q 313 1217 313 1150 q 360 1328 313 1283 q 473 1373 408 1373 q 589 1329 541 1373 q 636 1217 636 1284 q 589 1105 636 1149 q 473 1060 541 1060 q 360 1105 408 1060 m 414 1217 q 430 1175 414 1192 q 472 1158 446 1158 q 516 1175 498 1158 q 533 1217 533 1192 q 516 1259 533 1241 q 472 1276 498 1276 q 430 1259 447 1276 q 414 1217 414 1241 z "},"ů":{"ha":783,"x_min":77,"x_max":707,"o":"m 77 227 l 77 679 l 271 679 l 271 275 q 302 189 271 221 q 385 157 334 157 q 513 227 460 157 l 513 679 l 707 679 l 707 0 l 515 0 l 515 54 q 325 -22 436 -22 q 204 6 260 -22 q 113 92 149 34 q 77 227 77 150 m 275 799 q 252 822 275 799 q 228 911 228 844 q 275 1023 228 977 q 389 1068 323 1068 q 504 1023 456 1068 q 551 911 551 978 q 504 799 551 844 q 389 754 456 754 q 275 799 323 754 m 329 911 q 345 869 329 886 q 387 852 361 852 q 432 869 414 852 q 449 911 449 886 q 431 953 449 935 q 387 971 414 971 q 346 953 362 971 q 329 911 329 935 z "},"Ű":{"ha":948,"x_min":90,"x_max":859,"o":"m 90 374 l 90 972 l 296 972 l 296 375 q 342 231 296 285 q 475 178 389 178 q 607 231 562 178 q 653 375 653 285 l 653 972 l 859 972 l 859 374 q 758 84 859 190 q 475 -21 657 -21 q 191 84 292 -21 q 90 374 90 190 m 288 1080 l 340 1291 l 530 1291 l 414 1080 l 288 1080 m 514 1080 l 572 1291 l 762 1291 l 642 1080 l 514 1080 z "},"ű":{"ha":783,"x_min":77,"x_max":707,"o":"m 77 227 l 77 679 l 271 679 l 271 275 q 302 189 271 221 q 385 157 334 157 q 513 227 460 157 l 513 679 l 707 679 l 707 0 l 515 0 l 515 54 q 325 -22 436 -22 q 204 6 260 -22 q 113 92 149 34 q 77 227 77 150 m 203 775 l 256 985 l 446 985 l 329 775 l 203 775 m 429 775 l 488 985 l 677 985 l 557 775 l 429 775 z "},"Ų":{"ha":948,"x_min":90,"x_max":859,"o":"m 90 374 l 90 972 l 296 972 l 296 375 q 342 231 296 285 q 475 178 389 178 q 607 231 562 178 q 653 375 653 285 l 653 972 l 859 972 l 859 374 q 798 135 859 231 q 623 1 736 39 l 628 0 q 542 -57 581 -21 q 503 -131 503 -94 q 524 -172 503 -159 q 575 -184 545 -184 q 628 -175 603 -184 l 628 -298 q 539 -313 589 -313 q 451 -298 491 -313 q 383 -251 410 -284 q 355 -172 355 -218 q 437 -20 355 -83 q 181 96 271 -8 q 90 374 90 199 z "},"ų":{"ha":783,"x_min":77,"x_max":707,"o":"m 77 227 l 77 679 l 271 679 l 271 275 q 302 189 271 221 q 385 157 334 157 q 513 227 460 157 l 513 679 l 707 679 l 707 0 q 621 -57 660 -21 q 582 -131 582 -94 q 603 -172 582 -159 q 654 -184 624 -184 q 707 -175 682 -184 l 707 -298 q 618 -313 668 -313 q 529 -298 570 -313 q 462 -251 489 -284 q 435 -172 435 -218 q 545 0 435 -70 l 515 0 l 515 54 q 325 -22 436 -22 q 204 6 260 -22 q 113 92 149 34 q 77 227 77 150 z "},"Ŵ":{"ha":1474,"x_min":37,"x_max":1438,"o":"m 37 972 l 267 972 l 439 456 l 652 972 l 823 972 l 1038 456 l 1208 972 l 1438 972 l 1064 -31 l 1032 -31 l 737 681 l 444 -31 l 411 -31 l 37 972 m 510 1090 l 644 1291 l 829 1291 l 964 1090 l 825 1090 l 736 1182 l 648 1090 l 510 1090 z "},"ŵ":{"ha":1166,"x_min":21,"x_max":1146,"o":"m 21 679 l 235 679 l 346 214 l 489 679 l 682 679 l 823 214 l 935 679 l 1146 679 l 951 -1 l 713 0 l 585 432 l 460 -1 l 220 0 l 21 679 m 359 785 l 494 985 l 679 985 l 814 785 l 675 785 l 586 876 l 498 785 l 359 785 z "},"Ŷ":{"ha":985,"x_min":18,"x_max":966,"o":"m 18 972 l 254 972 l 493 575 l 732 972 l 966 972 l 599 382 l 599 0 l 387 0 l 387 382 l 18 972 m 268 1090 l 403 1291 l 587 1291 l 722 1090 l 583 1090 l 494 1182 l 407 1090 l 268 1090 z "},"ŷ":{"ha":814,"x_min":9,"x_max":804,"o":"m 9 679 l 225 679 l 410 269 l 589 679 l 804 679 l 378 -281 l 163 -279 l 311 50 l 9 679 m 182 785 l 317 985 l 501 985 l 636 785 l 497 785 l 408 876 l 321 785 l 182 785 z "},"Ÿ":{"ha":985,"x_min":18,"x_max":966,"o":"m 18 972 l 254 972 l 493 575 l 732 972 l 966 972 l 599 382 l 599 0 l 387 0 l 387 382 l 18 972 m 284 1124 q 270 1139 284 1124 q 256 1197 256 1153 q 284 1270 256 1241 q 355 1299 313 1299 q 429 1270 399 1299 q 460 1197 460 1241 q 429 1124 460 1153 q 355 1096 399 1096 q 284 1124 313 1096 m 568 1124 q 554 1138 568 1124 q 539 1197 539 1152 q 568 1270 539 1242 q 642 1299 597 1299 q 714 1270 685 1299 q 743 1197 743 1241 q 714 1124 743 1153 q 642 1096 684 1096 q 568 1124 597 1096 z "},"Ź":{"ha":895,"x_min":45,"x_max":860,"o":"m 45 0 l 45 201 l 576 782 l 58 782 l 58 972 l 852 972 l 852 777 l 326 193 l 860 193 l 860 0 l 45 0 m 366 1080 l 458 1291 l 664 1291 l 507 1080 l 366 1080 z "},"ź":{"ha":699,"x_min":46,"x_max":652,"o":"m 46 0 l 46 163 l 386 517 l 52 517 l 52 679 l 644 679 l 644 521 l 304 167 l 652 167 l 652 0 l 46 0 m 268 775 l 361 985 l 567 985 l 410 775 l 268 775 z "},"Ż":{"ha":895,"x_min":45,"x_max":860,"o":"m 45 0 l 45 201 l 576 782 l 58 782 l 58 972 l 852 972 l 852 777 l 326 193 l 860 193 l 860 0 l 45 0 m 329 1239 q 364 1325 329 1292 q 450 1358 399 1358 q 539 1325 504 1358 q 574 1239 574 1293 q 539 1153 574 1187 q 450 1120 504 1120 q 364 1153 399 1120 q 329 1239 329 1187 z "},"ż":{"ha":699,"x_min":46,"x_max":652,"o":"m 46 0 l 46 163 l 386 517 l 52 517 l 52 679 l 644 679 l 644 521 l 304 167 l 652 167 l 652 0 l 46 0 m 233 933 q 268 1019 233 986 q 354 1053 302 1053 q 443 1019 408 1053 q 478 933 478 986 q 443 847 478 881 q 354 814 408 814 q 268 847 302 814 q 233 933 233 881 z "},"Ž":{"ha":895,"x_min":45,"x_max":860,"o":"m 45 0 l 45 201 l 576 782 l 58 782 l 58 972 l 852 972 l 852 777 l 326 193 l 860 193 l 860 0 l 45 0 m 233 1291 l 372 1291 l 460 1198 l 549 1291 l 688 1291 l 553 1090 l 368 1090 l 233 1291 z "},"ž":{"ha":699,"x_min":46,"x_max":652,"o":"m 46 0 l 46 163 l 386 517 l 52 517 l 52 679 l 644 679 l 644 521 l 304 167 l 652 167 l 652 0 l 46 0 m 136 985 l 275 985 l 363 893 l 452 985 l 590 985 l 456 785 l 271 785 l 136 985 z "},"Ǎ":{"ha":1019,"x_min":9,"x_max":1011,"o":"m 9 0 l 386 972 l 635 972 l 1011 0 l 793 0 l 718 199 l 298 199 l 225 0 l 9 0 m 289 1291 l 428 1291 l 515 1198 l 604 1291 l 743 1291 l 608 1090 l 424 1090 l 289 1291 m 368 385 l 647 385 l 507 758 l 368 385 z "},"ǎ":{"ha":733,"x_min":52,"x_max":668,"o":"m 52 211 q 124 369 52 311 q 304 427 197 427 q 473 385 395 427 l 473 432 q 441 503 473 475 q 345 530 410 530 q 90 450 216 530 l 90 640 q 363 701 217 701 q 587 631 506 701 q 668 457 668 560 l 668 0 l 488 0 l 488 45 q 404 -2 454 16 q 294 -21 354 -21 q 119 40 186 -21 q 52 211 52 102 m 153 985 l 292 985 l 379 893 l 468 985 l 607 985 l 472 785 l 288 785 l 153 985 m 241 216 q 272 151 241 175 q 350 127 303 127 q 420 142 387 127 q 473 176 452 157 l 473 258 q 420 287 454 275 q 350 298 387 298 q 272 277 303 298 q 241 216 241 255 z "},"Ǐ":{"ha":404,"x_min":-9,"x_max":444,"o":"m -9 1291 l 129 1291 l 216 1198 l 306 1291 l 444 1291 l 310 1090 l 125 1090 l -9 1291 m 97 0 l 97 972 l 307 972 l 307 0 l 97 0 z "},"ǐ":{"ha":353,"x_min":-37,"x_max":416,"o":"m -37 985 l 102 985 l 189 893 l 278 985 l 416 985 l 282 785 l 97 785 l -37 985 m 79 0 l 79 679 l 273 679 l 273 0 l 79 0 z "},"Ǒ":{"ha":1118,"x_min":49,"x_max":1069,"o":"m 77 303 q 63 345 77 303 q 49 486 49 387 q 77 669 49 585 q 155 811 106 753 q 269 912 203 870 q 408 973 334 954 q 558 993 481 993 q 746 961 656 993 q 909 867 836 928 q 1026 708 982 806 q 1069 486 1069 609 q 1041 304 1069 388 q 963 161 1012 220 q 848 60 913 102 q 709 -1 783 18 q 558 -21 635 -21 q 408 -1 481 -21 q 269 60 334 18 q 155 161 203 102 q 77 303 106 220 m 269 486 q 352 266 269 349 q 558 183 435 183 q 765 266 683 183 q 847 486 847 348 q 765 706 847 623 q 558 789 682 789 q 353 706 436 789 q 269 486 269 623 m 340 1291 l 479 1291 l 567 1198 l 656 1291 l 794 1291 l 660 1090 l 475 1090 l 340 1291 z "},"ǒ":{"ha":823,"x_min":41,"x_max":782,"o":"m 41 342 q 145 598 41 496 q 411 701 248 701 q 678 598 574 701 q 782 342 782 496 q 735 158 782 240 q 604 27 689 75 q 411 -21 519 -21 q 218 27 303 -21 q 87 158 134 75 q 41 342 41 240 m 192 985 l 330 985 l 418 893 l 507 985 l 646 985 l 511 785 l 326 785 l 192 985 m 243 342 q 291 211 243 260 q 411 163 339 163 q 532 211 484 163 q 581 342 581 260 q 532 471 581 422 q 411 519 484 519 q 291 471 339 519 q 243 342 243 422 z "},"Ǧ":{"ha":998,"x_min":49,"x_max":888,"o":"m 49 486 q 77 668 49 585 q 153 810 104 751 q 266 911 201 869 q 405 973 330 953 q 558 993 479 993 q 888 908 728 993 l 888 686 q 733 764 807 738 q 576 790 659 790 q 355 709 441 790 q 269 486 269 628 q 354 256 269 335 q 576 178 439 178 q 696 197 633 178 l 696 343 l 452 343 l 452 522 l 888 522 l 888 62 q 558 -21 735 -21 q 368 12 458 -21 q 205 106 277 44 q 91 266 134 168 q 49 486 49 364 m 335 1291 l 473 1291 l 561 1198 l 650 1291 l 789 1291 l 654 1090 l 469 1090 l 335 1291 z "},"ǧ":{"ha":801,"x_min":41,"x_max":736,"o":"m 41 366 q 128 608 41 515 q 353 701 215 701 q 542 631 473 701 l 542 679 l 736 679 l 736 21 q 649 -214 736 -128 q 385 -300 562 -300 q 225 -276 304 -300 q 97 -220 147 -252 l 97 -28 q 237 -98 163 -74 q 375 -122 312 -122 q 501 -87 460 -122 q 542 21 542 -52 l 542 96 q 459 44 508 64 q 353 24 410 24 q 128 119 215 24 q 41 366 41 214 m 192 985 l 330 985 l 418 893 l 507 985 l 646 985 l 511 785 l 326 785 l 192 985 m 243 366 q 284 243 243 288 q 392 197 325 197 q 474 217 435 197 q 542 271 514 237 l 542 456 q 475 508 515 488 q 392 528 435 528 q 284 483 326 528 q 243 366 243 438 z "},"Ș":{"ha":836,"x_min":65,"x_max":781,"o":"m 65 689 q 163 908 65 823 q 436 993 261 993 q 721 933 587 993 l 721 728 q 429 802 560 802 q 321 774 360 802 q 282 701 282 746 q 304 643 282 667 q 367 610 326 618 l 521 576 q 781 283 781 519 q 686 65 781 151 q 428 -21 591 -21 q 72 64 235 -21 l 72 271 q 239 202 136 231 q 428 172 341 172 q 528 200 495 172 q 561 271 561 228 q 535 335 561 308 q 461 372 510 363 l 326 401 q 65 689 65 458 m 304 -321 l 328 -65 l 514 -65 l 436 -321 l 304 -321 z "},"ș":{"ha":637,"x_min":56,"x_max":589,"o":"m 56 479 q 129 638 56 576 q 335 701 202 701 q 557 656 456 701 l 557 479 q 334 532 443 532 q 268 517 290 532 q 245 479 245 503 q 307 431 245 444 l 382 415 q 538 345 487 395 q 589 207 589 294 q 510 42 589 104 q 293 -21 432 -21 q 57 26 180 -21 l 57 212 q 181 167 116 184 q 296 150 246 150 q 386 205 386 150 q 323 258 386 247 l 245 273 q 56 479 56 309 m 205 -321 l 229 -65 l 415 -65 l 338 -321 l 205 -321 z "},"Ț":{"ha":904,"x_min":37,"x_max":868,"o":"m 37 782 l 37 972 l 868 972 l 868 782 l 557 781 l 557 -1 l 347 0 l 347 782 l 37 782 m 334 -321 l 357 -65 l 543 -65 l 465 -321 l 334 -321 z "},"ț":{"ha":524,"x_min":18,"x_max":479,"o":"m 18 518 l 18 679 l 140 679 l 140 864 l 328 933 l 328 679 l 479 679 l 479 518 l 328 518 l 328 245 q 424 154 328 154 q 479 163 446 154 l 479 -5 q 363 -21 427 -21 q 275 -8 315 -21 q 202 30 235 4 q 152 99 170 56 q 134 200 134 142 l 134 518 l 18 518 m 207 -321 l 231 -65 l 416 -65 l 339 -321 l 207 -321 z "},"ȷ":{"ha":370,"x_min":-46,"x_max":289,"o":"m -46 -121 q 0 -125 -28 -125 q 94 -33 94 -125 l 94 679 l 289 679 l 289 -72 q 223 -239 289 -179 q 60 -300 158 -300 q -46 -288 5 -300 l -46 -121 z "},"ˆ":{"ha":529,"x_min":37,"x_max":492,"o":"m 37 785 l 172 985 l 357 985 l 492 785 l 353 785 l 264 876 l 176 785 l 37 785 z "},"ˇ":{"ha":529,"x_min":37,"x_max":492,"o":"m 37 985 l 176 985 l 264 893 l 353 985 l 492 985 l 357 785 l 172 785 l 37 985 z "},"˘":{"ha":493,"x_min":37,"x_max":457,"o":"m 37 985 l 160 985 q 184 927 161 949 q 248 904 208 904 q 310 927 287 904 q 334 985 332 949 l 457 985 q 402 833 456 887 q 248 779 348 779 q 94 833 149 779 q 37 985 39 888 z "},"˙":{"ha":319,"x_min":37,"x_max":282,"o":"m 37 933 q 72 1019 37 986 q 158 1053 106 1053 q 247 1019 212 1053 q 282 933 282 986 q 247 847 282 881 q 158 814 212 814 q 72 847 106 814 q 37 933 37 881 z "},"˚":{"ha":398,"x_min":37,"x_max":361,"o":"m 85 799 q 61 822 85 799 q 37 911 37 844 q 85 1023 37 977 q 199 1068 133 1068 q 313 1023 266 1068 q 361 911 361 978 q 313 799 361 844 q 199 754 266 754 q 85 799 133 754 m 139 911 q 155 869 139 886 q 197 852 172 852 q 241 869 224 852 q 258 911 258 886 q 241 953 258 935 q 197 971 224 971 q 156 953 172 971 q 139 911 139 935 z "},"˛":{"ha":347,"x_min":37,"x_max":310,"o":"m 37 -172 q 51 -104 37 -136 q 89 -47 65 -71 q 136 -7 113 -24 q 186 22 159 9 l 310 0 q 223 -57 262 -21 q 184 -131 184 -94 q 205 -172 184 -159 q 257 -184 227 -184 q 310 -175 285 -184 l 310 -298 q 221 -313 271 -313 q 133 -298 173 -313 q 65 -251 92 -284 q 37 -172 37 -218 z "},"˜":{"ha":530,"x_min":37,"x_max":493,"o":"m 37 811 q 75 956 37 909 q 179 1003 113 1003 q 268 977 214 1003 l 294 962 q 347 946 323 946 q 385 1000 385 946 l 493 1000 q 454 862 493 915 q 351 808 415 808 q 267 833 313 808 l 240 847 q 189 865 202 865 q 158 851 170 865 q 146 811 146 836 l 37 811 z "},"˝":{"ha":550,"x_min":37,"x_max":513,"o":"m 37 775 l 90 985 l 281 985 l 164 775 l 37 775 m 264 775 l 322 985 l 513 985 l 392 775 l 264 775 z "},"̒":{"ha":0,"x_min":-248,"x_max":-37,"o":"m -248 766 l -170 1023 l -37 1023 l -61 766 l -248 766 z "},"̦":{"ha":0,"x_min":-248,"x_max":-37,"o":"m -248 -321 l -224 -65 l -37 -65 l -115 -321 l -248 -321 z "},"Ẁ":{"ha":1474,"x_min":37,"x_max":1438,"o":"m 37 972 l 267 972 l 439 456 l 652 972 l 823 972 l 1038 456 l 1208 972 l 1438 972 l 1064 -31 l 1032 -31 l 737 681 l 444 -31 l 411 -31 l 37 972 m 542 1291 l 747 1291 l 840 1080 l 697 1080 l 542 1291 z "},"ẁ":{"ha":1166,"x_min":21,"x_max":1146,"o":"m 21 679 l 235 679 l 346 214 l 489 679 l 682 679 l 823 214 l 935 679 l 1146 679 l 951 -1 l 713 0 l 585 432 l 460 -1 l 220 0 l 21 679 m 392 985 l 597 985 l 690 775 l 547 775 l 392 985 z "},"Ẃ":{"ha":1474,"x_min":37,"x_max":1438,"o":"m 37 972 l 267 972 l 439 456 l 652 972 l 823 972 l 1038 456 l 1208 972 l 1438 972 l 1064 -31 l 1032 -31 l 737 681 l 444 -31 l 411 -31 l 37 972 m 652 1080 l 745 1291 l 950 1291 l 793 1080 l 652 1080 z "},"ẃ":{"ha":1166,"x_min":21,"x_max":1146,"o":"m 21 679 l 235 679 l 346 214 l 489 679 l 682 679 l 823 214 l 935 679 l 1146 679 l 951 -1 l 713 0 l 585 432 l 460 -1 l 220 0 l 21 679 m 501 775 l 595 985 l 800 985 l 643 775 l 501 775 z "},"Ẅ":{"ha":1474,"x_min":37,"x_max":1438,"o":"m 37 972 l 267 972 l 439 456 l 652 972 l 823 972 l 1038 456 l 1208 972 l 1438 972 l 1064 -31 l 1032 -31 l 737 681 l 444 -31 l 411 -31 l 37 972 m 526 1124 q 512 1139 526 1124 q 497 1197 497 1153 q 526 1270 497 1241 q 597 1299 555 1299 q 671 1270 641 1299 q 701 1197 701 1241 q 671 1124 701 1153 q 597 1096 641 1096 q 526 1124 555 1096 m 810 1124 q 795 1138 810 1124 q 781 1197 781 1152 q 810 1270 781 1242 q 884 1299 839 1299 q 956 1270 927 1299 q 985 1197 985 1241 q 956 1124 985 1153 q 884 1096 926 1096 q 810 1124 839 1096 z "},"ẅ":{"ha":1166,"x_min":21,"x_max":1146,"o":"m 21 679 l 235 679 l 346 214 l 489 679 l 682 679 l 823 214 l 935 679 l 1146 679 l 951 -1 l 713 0 l 585 432 l 460 -1 l 220 0 l 21 679 m 376 819 q 362 833 376 819 q 347 892 347 848 q 376 964 347 936 q 447 993 405 993 q 521 964 490 993 q 551 892 551 936 q 521 819 551 848 q 447 790 490 790 q 376 819 405 790 m 660 819 q 645 833 660 819 q 631 892 631 847 q 660 965 631 937 q 733 993 688 993 q 806 964 777 993 q 835 892 835 936 q 805 819 835 848 q 733 790 776 790 q 660 819 688 790 z "},"ẞ":{"ha":1027,"x_min":97,"x_max":972,"o":"m 97 0 l 97 644 q 201 896 97 803 q 505 989 306 989 q 685 967 595 989 q 842 916 776 946 l 842 704 l 679 559 l 746 541 q 912 442 852 507 q 972 283 972 376 q 954 163 972 218 q 896 67 935 109 q 791 2 857 26 q 637 -21 725 -21 q 404 22 518 -21 l 404 229 q 623 178 529 178 q 721 204 690 178 q 753 273 753 231 q 659 372 753 342 l 468 429 l 468 627 l 637 774 q 501 794 566 794 q 352 753 401 794 q 302 644 302 713 l 302 0 l 97 0 z "},"Ẽ":{"ha":802,"x_min":97,"x_max":747,"o":"m 97 0 l 97 972 l 747 972 l 747 789 l 298 789 l 298 579 l 704 579 l 704 396 l 298 396 l 298 189 l 747 189 l 747 0 l 97 0 m 229 1117 q 267 1261 229 1214 q 371 1308 305 1308 q 460 1282 406 1308 l 486 1268 q 539 1251 517 1251 q 576 1305 576 1251 l 685 1305 q 646 1167 685 1220 q 543 1114 607 1114 q 458 1139 505 1114 l 432 1153 q 380 1171 395 1171 q 349 1156 361 1171 q 338 1117 338 1142 l 229 1117 z "},"ẽ":{"ha":769,"x_min":41,"x_max":728,"o":"m 41 345 q 88 531 41 449 q 214 657 134 613 q 390 701 293 701 q 638 602 548 701 q 728 342 728 503 q 725 285 728 307 l 244 285 q 299 179 247 218 q 419 140 351 140 q 677 224 551 140 l 677 56 q 557 0 622 20 q 399 -21 492 -21 q 219 21 299 -21 q 90 146 139 62 q 41 345 41 231 m 170 811 q 208 956 170 909 q 311 1003 245 1003 q 400 977 346 1003 l 427 962 q 479 946 456 946 q 517 1000 517 946 l 625 1000 q 586 862 625 915 q 484 808 547 808 q 399 833 445 808 l 372 847 q 321 865 334 865 q 290 851 301 865 q 278 811 278 836 l 170 811 m 249 415 l 532 415 q 492 504 528 467 q 390 541 456 541 q 291 503 330 541 q 249 415 252 465 z "},"Ỳ":{"ha":985,"x_min":18,"x_max":966,"o":"m 18 972 l 254 972 l 493 575 l 732 972 l 966 972 l 599 382 l 599 0 l 387 0 l 387 382 l 18 972 m 300 1291 l 505 1291 l 599 1080 l 456 1080 l 300 1291 z "},"ỳ":{"ha":814,"x_min":9,"x_max":804,"o":"m 9 679 l 225 679 l 410 269 l 589 679 l 804 679 l 378 -281 l 163 -279 l 311 50 l 9 679 m 214 985 l 419 985 l 513 775 l 370 775 l 214 985 z "}," ":{"ha":686,"x_min":0,"x_max":0,"o":""}," ":{"ha":1373,"x_min":0,"x_max":0,"o":""}," ":{"ha":686,"x_min":0,"x_max":0,"o":""}," ":{"ha":1373,"x_min":0,"x_max":0,"o":""}," ":{"ha":458,"x_min":0,"x_max":0,"o":""}," ":{"ha":343,"x_min":0,"x_max":0,"o":""}," ":{"ha":229,"x_min":0,"x_max":0,"o":""}," ":{"ha":229,"x_min":0,"x_max":0,"o":""}," ":{"ha":172,"x_min":0,"x_max":0,"o":""}," ":{"ha":275,"x_min":0,"x_max":0,"o":""}," ":{"ha":76,"x_min":0,"x_max":0,"o":""},"‐":{"ha":515,"x_min":45,"x_max":471,"o":"m 45 323 l 45 473 l 471 473 l 471 323 l 45 323 z "},"‑":{"ha":515,"x_min":45,"x_max":471,"o":"m 45 323 l 45 473 l 471 473 l 471 323 l 45 323 z "},"‒":{"ha":515,"x_min":45,"x_max":471,"o":"m 45 323 l 45 473 l 471 473 l 471 323 l 45 323 z "},"–":{"ha":878,"x_min":58,"x_max":819,"o":"m 58 355 l 58 507 l 819 507 l 819 355 l 58 355 z "},"—":{"ha":1518,"x_min":72,"x_max":1446,"o":"m 72 355 l 72 507 l 1446 507 l 1446 355 l 72 355 z "},"‘":{"ha":420,"x_min":66,"x_max":354,"o":"m 66 668 q 118 887 71 766 q 208 1074 164 1008 l 354 1074 q 297 869 322 991 q 269 668 271 747 l 66 668 z "},"’":{"ha":420,"x_min":66,"x_max":354,"o":"m 66 636 q 124 840 98 718 q 153 1042 149 962 l 354 1042 q 304 823 351 944 q 212 636 257 702 l 66 636 z "},"‚":{"ha":420,"x_min":66,"x_max":354,"o":"m 66 -228 q 124 -24 98 -146 q 153 178 149 98 l 354 178 q 304 -41 351 80 q 212 -228 257 -162 l 66 -228 z "},"“":{"ha":718,"x_min":66,"x_max":650,"o":"m 66 668 q 118 887 71 766 q 208 1074 164 1008 l 354 1074 q 297 869 322 991 q 269 668 271 747 l 66 668 m 364 668 q 414 887 368 766 q 505 1074 461 1008 l 650 1074 q 594 870 619 992 q 566 668 569 747 l 364 668 z "},"”":{"ha":718,"x_min":66,"x_max":650,"o":"m 66 636 q 124 840 98 718 q 153 1042 149 962 l 354 1042 q 304 823 351 944 q 212 636 257 702 l 66 636 m 364 636 q 420 841 395 718 q 449 1042 446 963 l 650 1042 q 600 823 646 944 q 509 636 553 702 l 364 636 z "},"„":{"ha":718,"x_min":66,"x_max":650,"o":"m 66 -228 q 124 -24 98 -146 q 153 178 149 98 l 354 178 q 304 -41 351 80 q 212 -228 257 -162 l 66 -228 m 364 -228 q 420 -23 395 -146 q 449 178 446 99 l 650 178 q 600 -41 646 80 q 509 -228 553 -162 l 364 -228 z "},"†":{"ha":555,"x_min":24,"x_max":532,"o":"m 24 608 l 24 751 l 208 737 l 195 972 l 361 972 l 347 737 l 532 751 l 532 608 l 347 623 l 361 195 l 195 195 l 208 623 l 24 608 z "},"‡":{"ha":555,"x_min":24,"x_max":532,"o":"m 24 200 l 24 343 l 208 329 l 195 476 l 208 623 l 24 608 l 24 751 l 208 737 l 195 972 l 361 972 l 347 737 l 532 751 l 532 608 l 347 623 l 361 476 l 347 329 l 532 343 l 532 200 l 347 214 l 361 -21 l 195 -21 l 208 214 l 24 200 z "},"•":{"ha":725,"x_min":125,"x_max":600,"o":"m 125 415 q 195 584 125 514 q 363 654 264 654 q 531 584 461 654 q 600 415 600 514 q 530 248 600 318 q 363 178 460 178 q 195 248 265 178 q 125 415 125 318 z "},"…":{"ha":1054,"x_min":69,"x_max":985,"o":"m 105 29 q 87 47 105 29 q 69 115 69 64 q 105 202 69 166 q 193 237 140 237 q 282 202 247 237 q 318 115 318 167 q 282 28 318 64 q 193 -7 247 -7 q 105 29 140 -7 m 442 28 q 425 46 442 28 q 407 115 407 64 q 442 202 407 167 q 530 237 477 237 q 620 202 584 237 q 656 115 656 167 q 620 28 656 64 q 530 -7 584 -7 q 442 28 477 -7 m 771 29 q 754 47 771 29 q 736 115 736 64 q 771 202 736 166 q 860 237 807 237 q 949 202 913 237 q 985 115 985 167 q 949 28 985 64 q 860 -7 913 -7 q 771 29 807 -7 z "}," ":{"ha":275,"x_min":0,"x_max":0,"o":""},"‰":{"ha":1711,"x_min":77,"x_max":1634,"o":"m 77 768 q 143 929 77 865 q 306 993 209 993 q 470 929 403 993 q 536 768 536 865 q 470 606 536 670 q 306 542 404 542 q 142 606 208 542 q 77 768 77 670 m 208 -1 l 794 971 l 975 971 l 389 -1 l 208 -1 m 220 768 q 244 705 220 729 q 306 681 268 681 q 369 705 344 681 q 393 768 393 729 q 369 830 393 806 q 306 854 344 854 q 244 831 268 854 q 220 768 220 807 m 714 42 q 681 74 714 42 q 648 204 648 106 q 714 366 648 302 q 878 431 781 431 q 1042 366 975 431 q 1108 204 1108 302 q 1042 42 1108 106 q 878 -22 975 -22 q 714 42 781 -22 m 815 267 q 803 255 815 267 q 791 204 791 243 q 815 142 791 165 q 878 118 840 118 q 940 142 916 118 q 965 204 965 166 q 940 267 965 243 q 878 292 916 292 q 815 267 840 292 m 1242 42 q 1208 75 1242 42 q 1175 204 1175 107 q 1242 366 1175 301 q 1404 431 1308 431 q 1569 366 1503 431 q 1634 204 1634 302 q 1569 42 1634 106 q 1404 -22 1503 -22 q 1242 42 1308 -22 m 1342 267 q 1330 255 1342 267 q 1318 204 1318 243 q 1342 142 1318 165 q 1404 118 1367 118 q 1467 142 1442 118 q 1492 204 1492 166 q 1467 267 1492 243 q 1404 292 1442 292 q 1342 267 1367 292 z "},"‹":{"ha":454,"x_min":24,"x_max":404,"o":"m 24 361 l 241 627 l 404 627 l 233 361 l 404 96 l 241 96 l 24 361 z "},"›":{"ha":454,"x_min":52,"x_max":432,"o":"m 52 96 l 221 361 l 52 627 l 212 627 l 432 361 l 212 96 l 52 96 z "},"⁄":{"ha":686,"x_min":9,"x_max":676,"o":"m 9 -56 l 486 1042 l 676 1042 l 200 -56 l 9 -56 z "}," ":{"ha":343,"x_min":0,"x_max":0,"o":""},"€":{"ha":1008,"x_min":49,"x_max":953,"o":"m 49 293 l 49 437 l 115 437 q 114 486 114 453 q 115 521 114 510 l 49 521 l 49 665 l 140 665 q 251 846 175 771 q 421 957 326 922 q 624 993 517 993 q 953 908 793 993 l 953 686 q 798 764 872 738 q 643 790 724 790 q 492 758 559 790 q 386 665 425 726 l 705 665 l 676 521 l 338 521 q 336 486 336 510 q 339 437 336 469 l 654 437 l 625 293 l 396 293 q 500 211 437 239 q 643 182 564 182 q 798 208 724 182 q 953 286 871 234 l 953 62 q 624 -21 800 -21 q 426 13 519 -21 q 257 120 332 47 q 146 293 182 192 l 49 293 z "},"№":{"ha":1870,"x_min":97,"x_max":1773,"o":"m 97 0 l 97 972 l 325 972 l 757 347 l 757 972 l 956 972 l 956 0 l 755 0 l 296 686 l 296 0 l 97 0 m 1079 654 q 1176 896 1079 799 q 1426 993 1274 993 q 1676 896 1579 993 q 1773 654 1773 799 q 1676 411 1773 508 q 1426 314 1579 314 q 1285 340 1350 314 q 1175 412 1221 367 q 1104 520 1130 458 q 1079 654 1079 583 m 1267 654 q 1312 531 1267 576 q 1426 485 1358 485 q 1541 531 1495 485 q 1586 654 1586 576 q 1541 777 1586 732 q 1426 822 1495 822 q 1312 777 1358 822 q 1267 654 1267 732 m 1345 26 q 1329 43 1345 26 q 1312 107 1312 59 q 1345 188 1312 155 q 1428 221 1378 221 q 1511 188 1477 221 q 1544 107 1544 155 q 1511 26 1544 59 q 1428 -7 1477 -7 q 1345 26 1378 -7 z "},"™":{"ha":838,"x_min":49,"x_max":790,"o":"m 49 886 l 49 972 l 357 972 l 357 886 l 253 886 l 253 647 l 153 647 l 153 886 l 49 886 m 412 647 l 412 972 l 515 972 l 602 831 l 690 972 l 790 972 l 790 647 l 700 647 l 700 832 l 606 679 l 597 679 l 503 832 l 503 647 l 412 647 z "},"←":{"ha":1282,"x_min":56,"x_max":1226,"o":"m 56 472 l 509 945 l 786 945 l 439 581 l 1226 581 l 1226 364 l 439 364 l 786 0 l 509 0 l 56 472 z "},"↑":{"ha":1055,"x_min":56,"x_max":1000,"o":"m 56 367 l 56 644 l 528 1097 l 1000 644 l 1000 367 l 636 713 l 636 -74 l 419 -74 l 419 713 l 56 367 z "},"→":{"ha":1282,"x_min":56,"x_max":1226,"o":"m 56 364 l 56 581 l 843 581 l 496 945 l 774 945 l 1226 472 l 774 0 l 496 0 l 843 364 l 56 364 z "},"↓":{"ha":1055,"x_min":56,"x_max":1000,"o":"m 56 328 l 56 606 l 419 260 l 419 1046 l 636 1046 l 636 260 l 1000 606 l 1000 328 l 528 -125 l 56 328 z "},"↖":{"ha":1046,"x_min":56,"x_max":990,"o":"m 56 336 l 56 990 l 711 990 l 909 794 l 404 794 l 990 211 l 835 57 l 253 642 l 253 136 l 56 336 z "},"↗":{"ha":1046,"x_min":56,"x_max":990,"o":"m 56 211 l 642 794 l 135 794 l 335 990 l 990 990 l 990 336 l 793 136 l 793 642 l 210 57 l 56 211 z "},"↘":{"ha":1046,"x_min":56,"x_max":990,"o":"m 56 782 l 210 936 l 793 351 l 793 857 l 990 657 l 990 3 l 335 3 l 135 199 l 642 199 l 56 782 z "},"↙":{"ha":1046,"x_min":56,"x_max":990,"o":"m 56 3 l 56 657 l 253 857 l 253 351 l 835 936 l 990 782 l 404 199 l 909 199 l 711 3 l 56 3 z "},"−":{"ha":672,"x_min":0,"x_max":672,"o":"m 0 326 l 0 472 l 672 472 l 672 326 l 0 326 z "},"≈":{"ha":764,"x_min":39,"x_max":725,"o":"m 39 296 q 127 402 73 366 q 244 437 180 437 q 376 401 312 437 l 440 367 q 519 345 484 345 q 624 421 584 345 l 725 322 q 637 216 690 252 q 519 180 583 180 q 385 218 454 180 l 321 253 q 244 273 281 273 q 140 197 180 273 l 39 296 m 39 606 q 126 711 73 675 q 244 746 180 746 q 376 710 312 746 l 440 675 q 519 653 482 653 q 624 729 583 653 l 725 632 q 637 526 690 562 q 519 490 583 490 q 385 528 453 490 l 321 562 q 244 583 280 583 q 140 507 182 583 l 39 606 z "},"≠":{"ha":672,"x_min":0,"x_max":672,"o":"m 0 178 l 0 325 l 250 325 l 311 473 l 0 473 l 0 621 l 371 621 l 419 741 l 530 741 l 482 621 l 672 621 l 672 473 l 422 473 l 361 325 l 672 325 l 672 178 l 301 178 l 253 58 l 142 58 l 191 178 l 0 178 z "},"≤":{"ha":708,"x_min":18,"x_max":690,"o":"m 18 35 l 18 180 l 690 180 l 690 35 l 18 35 m 18 424 l 18 642 l 690 827 l 690 668 l 174 532 l 690 397 l 690 239 l 18 424 z "},"≥":{"ha":708,"x_min":18,"x_max":690,"o":"m 18 35 l 18 180 l 690 180 l 690 35 l 18 35 m 18 239 l 18 397 l 534 532 l 18 668 l 18 827 l 690 642 l 690 424 l 18 239 z "},"◼":{"ha":680,"x_min":0,"x_max":681,"o":"m 0 0 l 0 681 l 681 681 l 681 0 l 0 0 z "}}}
